<?xml version="1.0" standalone="no"?>
<!DOCTYPE svg PUBLIC "-//W3C//DTD SVG 1.1//EN" "http://www.w3.org/Graphics/SVG/1.1/DTD/svg11.dtd" >
<svg>
<metadata>
Created by FontForge 20090914 at Wed Jul 27 09:14:15 2016
 By www-data
Copyright (c) 2015 by Fernando Haro. All rights reserved.
</metadata>
<defs>
<font id="Ubicada-Pro" horiz-adv-x="315" >
  <font-face 
    font-family="Ubicada Pro"
    font-weight="400"
    font-stretch="normal"
    units-per-em="1000"
    panose-1="2 0 6 8 2 0 0 2 0 4"
    ascent="820"
    descent="-180"
    x-height="686"
    cap-height="819"
    bbox="-29 -177 795 1028"
    underline-thickness="32"
    underline-position="-138"
    unicode-range="U+000D-U+F8FF"
  />
<missing-glyph horiz-adv-x="576" 
d="M155 547h229v-156h156v-231h-385v387zM299 439v58h-57v-58h57zM155 160v-160l-155 160h155z" />
    <glyph glyph-name=".notdef" horiz-adv-x="576" 
d="M155 547h229v-156h156v-231h-385v387zM299 439v58h-57v-58h57zM155 160v-160l-155 160h155z" />
    <glyph glyph-name="NUL" horiz-adv-x="0" 
 />
    <glyph glyph-name="NUL" horiz-adv-x="0" 
 />
    <glyph glyph-name="nonmarkingreturn" unicode="&#xd;" horiz-adv-x="0" 
 />
    <glyph glyph-name="space" unicode=" " horiz-adv-x="276" 
 />
    <glyph glyph-name="exclam" unicode="!" horiz-adv-x="197" 
d="M78 160l-8 659h62l-8 -659h-46zM77 0c-6 0 -11.167 2 -15.5 6s-6.5 8.66699 -6.5 14v45c0 6 2.16699 11.167 6.5 15.5s9.5 6.5 15.5 6.5h46c6.66699 0 12 -2.16699 16 -6.5s6 -9.5 6 -15.5v-45c0 -5.33301 -2 -10 -6 -14s-9.33301 -6 -16 -6h-46z" />
    <glyph glyph-name="quotedbl" unicode="&#x22;" horiz-adv-x="288" 
d="M175 921h73l-18 -220l-36 -22zM46 921h73l-18 -220l-36 -22z" />
    <glyph glyph-name="numbersign" unicode="#" horiz-adv-x="306" 
d="M241 247h-53l-52 -247h-36l52 247h-66l-53 -247h-36l53 247h-59l6 36h59l53 247h-59l8 36h58l56 253h35l-55 -253h67l55 253h36l-55 -253h52l-7 -36h-53l-52 -247h52zM92 283h67l52 247h-66z" />
    <glyph glyph-name="dollar" unicode="$" horiz-adv-x="338" 
d="M102 534c0 -12.667 5.66699 -21.832 17 -27.499s25 -8.83398 41 -9.50098v276c-38.667 0 -58 -15.667 -58 -47v-192zM160 42.002l-0.00195312 410.002c-30 0 -54.833 6.66699 -74.5 20s-29.5 34 -29.5 62v199c0 25.333 10.333 45.666 31 60.999
s45.334 23.666 74.001 24.999v40h39v-40c28 -1.33301 52.667 -9.33301 74 -24s32 -36 32 -64v-122h-46v117c0 16.667 -5.16699 28.5 -15.5 35.5s-25.166 10.833 -44.499 11.5v-276c30 -1.33301 55.167 -9.33301 75.5 -24s30.5 -36.667 30.5 -66v-326
c0 -23.333 -8.83301 -43.333 -26.5 -60s-42.5 -25 -74.5 -25h-5v-54h-40v4l-1 50c-12.667 0 -25.167 1.83301 -37.5 5.5s-23.333 9 -33 16s-17.5 15.833 -23.5 26.5s-9 23.667 -9 39v123h46v-116c0 -16 4.66699 -28 14 -36s22 -12 38 -12h6zM205.998 42.0039
c15.333 0 28.168 4.16797 38.501 12.501s15.5 21.166 15.5 38.499v310c0 16 -5.33301 28 -16 36s-25.334 12.333 -44.001 13v-410h6z" />
    <glyph glyph-name="percent" unicode="%" horiz-adv-x="308" 
d="M44 370v33l221 46v-33zM87 563c0 -20.667 5.66797 -36.667 17.001 -48s27 -17 47 -17c19.333 0 34.833 5.83301 46.5 17.5s17.5 27.167 17.5 46.5v156c0 19.333 -5.83301 34.833 -17.5 46.5s-26.834 17.5 -45.501 17.5c-20.667 0 -36.667 -5.66699 -48 -17
s-17 -27.333 -17 -48v-154zM152.001 823c32 0 57.333 -9.5 76 -28.5s28 -45.167 28 -78.5v-152c0 -33.333 -9.33301 -59.5 -28 -78.5s-44 -28.5 -76 -28.5c-13.333 0 -26.333 2.16699 -39 6.5s-24 11 -34 20s-18 20.167 -24 33.5s-9 29 -9 47v152c0 18 3 33.667 9 47
s14 24.5 24 33.5s21.333 15.667 34 20s25.667 6.5 39 6.5zM87.001 101c0 -20.667 5.66797 -36.667 17.001 -48s27 -17 47 -17c19.333 0 34.833 5.83301 46.5 17.5s17.5 27.167 17.5 46.5v156c0 19.333 -5.83301 34.833 -17.5 46.5s-26.834 17.5 -45.501 17.5
c-20.667 0 -36.667 -5.66699 -48 -17s-17 -27.333 -17 -48v-154zM152.002 361c32 0 57.333 -9.5 76 -28.5s28 -45.5 28 -79.5v-151c0 -33.333 -9.33301 -59.5 -28 -78.5s-44 -28.5 -76 -28.5c-13.333 0 -26.333 2.16699 -39 6.5s-24 11 -34 20s-18 20.167 -24 33.5
s-9 29 -9 47v151c0 18 3 33.667 9 47s14 24.5 24 33.5s21.333 15.833 34 20.5s25.667 7 39 7z" />
    <glyph glyph-name="ampersand" unicode="&#x26;" horiz-adv-x="338" 
d="M195 819c24 0 45.3311 -7.00488 63.998 -21.0049s28 -35 28 -63v-49h-46v47c0 13.333 -4.16699 23.333 -12.5 30s-19.5 10 -33.5 10h-54c-34 0 -51 -12.667 -51 -38v-183c0 -15.333 3.33301 -27.166 10 -35.499s20.667 -12.5 42 -12.5h99v60h46v-60h51v-44h-51v-382
c0 -21.333 -9.16699 -39.666 -27.5 -54.999s-41.833 -23 -70.5 -23h-48c-32.667 0 -57 7.16699 -73 21.5s-24 33.166 -24 56.499v344c0 13.333 2.83301 25.333 8.5 36s13.834 18.334 24.501 23.001c-9.33301 4.66699 -17.166 11.834 -23.499 21.501s-9.5 20.834 -9.5 33.501
v205c0 24.667 8.66699 43.834 26 57.501s41 20.5 71 20.5h54zM89.998 92.9951c0 -14.667 4.16797 -26.167 12.501 -34.5s21.833 -12.5 40.5 -12.5h41c17.333 0 31.166 3.33301 41.499 10s15.5 16.667 15.5 30v374h-99c-18 0 -31.167 -4 -39.5 -12s-12.5 -19 -12.5 -33v-322z
" />
    <glyph glyph-name="quotesingle" unicode="'" horiz-adv-x="156" 
d="M49 921h73l-13 -220l-36 -22z" />
    <glyph glyph-name="parenleft" unicode="(" horiz-adv-x="207" 
d="M41 739c0 38 8.5 68.167 25.5 90.5s43.5 33.5 79.5 33.5h43v-44h-46c-17.333 0 -31 -6 -41 -18s-15 -32 -15 -60v-703c0 -28 5 -48 15 -60s23.667 -18 41 -18h46v-43h-43c-36 0 -62.5 11.167 -79.5 33.5s-25.5 52.5 -25.5 90.5v698z" />
    <glyph glyph-name="parenright" unicode=")" horiz-adv-x="207" 
d="M189.003 739c0 38 -8.5 68.167 -25.499 90.5s-43.4971 33.5 -79.4951 33.5h-42.9971v-44h45.9971c17.332 0 30.998 -6 40.9971 -18s14.999 -32 14.999 -60v-703c0 -28 -5 -48 -14.999 -60s-23.665 -18 -40.9971 -18h-45.9971v-43h42.9971
c35.998 0 62.4961 11.167 79.4951 33.5s25.499 52.5 25.499 90.5v698z" />
    <glyph glyph-name="asterisk" unicode="*" horiz-adv-x="353" 
d="M73 770c-7.33301 2 -11.833 6.83301 -13.5 14.5s-0.5 14.834 3.5 21.501c3.33301 6.66699 8.83301 11.334 16.5 14.001s14.5 1.33398 20.5 -3.99902l72 -63l-20 94c-1.33301 7.33301 1 13.666 7 18.999s12.667 8 20 8s14 -2.66699 20 -8s8.33301 -11.666 7 -18.999
l-19 -94l72 63c5.33301 5.33301 11.833 6.66602 19.5 3.99902s13.5 -7.33398 17.5 -14.001c3.33301 -6.66699 4.16602 -13.834 2.49902 -21.501s-6.16699 -12.5 -13.5 -14.5l-90 -31l90 -30c7.33301 -3.33301 11.833 -8.83301 13.5 -16.5s0.833984 -14.834 -2.49902 -21.501
c-4 -6 -9.83301 -10.333 -17.5 -13s-14.167 -1.33398 -19.5 3.99902l-72 63l19 -93c1.33301 -7.33301 -1 -13.666 -7 -18.999s-12.667 -8 -20 -8s-14 2.66699 -20 8s-8.33301 11.666 -7 18.999l20 93l-72 -63c-6 -5.33301 -12.833 -6.66602 -20.5 -3.99902
s-13.167 7 -16.5 13c-4 6.66699 -5.16699 13.834 -3.5 21.501s6.16699 13.167 13.5 16.5l91 30l-91 31v0z" />
    <glyph glyph-name="plus" unicode="+" horiz-adv-x="246" 
d="M101 287h-51v44h51v50h45v-50h50v-44h-50v-52h-45v52z" />
    <glyph glyph-name="comma" unicode="," horiz-adv-x="109" 
d="M6 -119l-35 22l61 198h73z" />
    <glyph glyph-name="hyphen" unicode="-" horiz-adv-x="246" 
d="M50 286v44h146v-44h-146z" />
    <glyph glyph-name="period" unicode="." horiz-adv-x="134" 
d="M46 -4c-5.33301 0 -9.83301 1.83301 -13.5 5.5s-5.5 8.16699 -5.5 13.5v41c0 6 1.83301 11 5.5 15s8.16699 6 13.5 6h41c6 0 11 -2 15 -6s6 -9 6 -15v-41c0 -5.33301 -2 -9.83301 -6 -13.5s-9 -5.5 -15 -5.5h-41v0z" />
    <glyph glyph-name="slash" unicode="/" horiz-adv-x="317" 
d="M207 854h46l-163 -889h-46z" />
    <glyph glyph-name="zero" unicode="0" horiz-adv-x="576" 
d="M155 547h229v-156h156v-231h-385v387zM299 439v58h-57v-58h57zM155 160v-160l-155 160h155z" />
    <glyph glyph-name="one" unicode="1" horiz-adv-x="576" 
d="M155 547h229v-156h156v-231h-385v387zM299 439v58h-57v-58h57zM155 160v-160l-155 160h155z" />
    <glyph glyph-name="two" unicode="2" horiz-adv-x="576" 
d="M155 547h229v-156h156v-231h-385v387zM299 439v58h-57v-58h57zM155 160v-160l-155 160h155z" />
    <glyph glyph-name="three" unicode="3" horiz-adv-x="576" 
d="M155 547h229v-156h156v-231h-385v387zM299 439v58h-57v-58h57zM155 160v-160l-155 160h155z" />
    <glyph glyph-name="four" unicode="4" horiz-adv-x="576" 
d="M155 547h229v-156h156v-231h-385v387zM299 439v58h-57v-58h57zM155 160v-160l-155 160h155z" />
    <glyph glyph-name="five" unicode="5" horiz-adv-x="576" 
d="M155 547h229v-156h156v-231h-385v387zM299 439v58h-57v-58h57zM155 160v-160l-155 160h155z" />
    <glyph glyph-name="six" unicode="6" horiz-adv-x="576" 
d="M155 547h229v-156h156v-231h-385v387zM299 439v58h-57v-58h57zM155 160v-160l-155 160h155z" />
    <glyph glyph-name="seven" unicode="7" horiz-adv-x="576" 
d="M155 547h229v-156h156v-231h-385v387zM299 439v58h-57v-58h57zM155 160v-160l-155 160h155z" />
    <glyph glyph-name="eight" unicode="8" horiz-adv-x="576" 
d="M155 547h229v-156h156v-231h-385v387zM299 439v58h-57v-58h57zM155 160v-160l-155 160h155z" />
    <glyph glyph-name="nine" unicode="9" horiz-adv-x="576" 
d="M155 547h229v-156h156v-231h-385v387zM299 439v58h-57v-58h57zM155 160v-160l-155 160h155z" />
    <glyph glyph-name="colon" unicode=":" horiz-adv-x="134" 
d="M46 321c-5.33301 0 -9.83301 1.83301 -13.5 5.5s-5.5 8.16699 -5.5 13.5v41c0 6 1.83301 11 5.5 15s8.16699 6 13.5 6h41c6 0 11 -2 15 -6s6 -9 6 -15v-41c0 -5.33301 -2 -9.83301 -6 -13.5s-9 -5.5 -15 -5.5h-41zM46 -4c-5.33301 0 -9.83301 1.83301 -13.5 5.5
s-5.5 8.16699 -5.5 13.5v41c0 6 1.83301 11 5.5 15s8.16699 6 13.5 6h41c6 0 11 -2 15 -6s6 -9 6 -15v-41c0 -5.33301 -2 -9.83301 -6 -13.5s-9 -5.5 -15 -5.5h-41z" />
    <glyph glyph-name="semicolon" unicode=";" horiz-adv-x="134" 
d="M6 -119l-35 22l61 198h73zM46 321c-5.33301 0 -9.83301 1.83301 -13.5 5.5s-5.5 8.16699 -5.5 13.5v41c0 6 1.83301 11 5.5 15s8.16699 6 13.5 6h41c6 0 11 -2 15 -6s6 -9 6 -15v-41c0 -5.33301 -2 -9.83301 -6 -13.5s-9 -5.5 -15 -5.5h-41z" />
    <glyph glyph-name="less" unicode="&#x3c;" horiz-adv-x="255" 
d="M47 308l99 220l36 -22l-62 -198l62 -198l-36 -22z" />
    <glyph glyph-name="equal" unicode="=" horiz-adv-x="246" 
d="M50 332v45h146v-45h-146zM50 242v45h146v-45h-146z" />
    <glyph glyph-name="greater" unicode="&#x3e;" horiz-adv-x="255" 
d="M208.003 308l-98.9941 220l-35.998 -22l61.9971 -198l-61.9971 -198l35.998 -22z" />
    <glyph glyph-name="question" unicode="?" horiz-adv-x="334" 
d="M221 237c8.66699 5.33301 14.666 11.1689 17.999 17.502s5 14.833 5 25.5v446c0 15.333 -4.16699 27 -12.5 35s-22.5 12 -42.5 12h-49c-35.333 0 -53 -15.667 -53 -47v-341h-46v347c0 25.333 8.66699 46.166 26 62.499s42.333 24.5 75 24.5h45
c32.667 0 58.167 -7.5 76.5 -22.5s27.5 -35.167 27.5 -60.5v-466c0 -15.333 -2.16699 -27.833 -6.5 -37.5s-12.166 -17.5 -23.499 -23.5l-89 -59c-12 -8 -20.833 -15.667 -26.5 -23s-8.5 -17.333 -8.5 -30v-97h-46v102c0 17.333 2.5 31.666 7.5 42.999s15.167 22 30.5 32z
M90.999 -164.997c-6 0 -11.167 2 -15.5 6s-6.5 8.66699 -6.5 14v45c0 6 2.16699 11.167 6.5 15.5s9.5 6.5 15.5 6.5h46c6.66699 0 12 -2.16699 16 -6.5s6 -9.5 6 -15.5v-45c0 -5.33301 -2 -10 -6 -14s-9.33301 -6 -16 -6h-46z" />
    <glyph glyph-name="at" unicode="@" horiz-adv-x="540" 
d="M370 -44h-166.003c-54.667 0 -95 12.833 -121 38.5s-39 59.167 -39 100.5v587c0 40.667 13.5 73.667 40.5 99s66.833 38 119.5 38h135c47.333 0 85.833 -11.833 115.5 -35.5s44.5 -57.5 44.5 -101.5v-496c0 -39.333 -9.66699 -67.833 -29 -85.5
s-52.666 -26.5 -99.999 -26.5h-120c-26 0 -48.833 7.33301 -68.5 22s-29.5 37.667 -29.5 69v218c0 26 7.83301 47.833 23.5 65.5s39.5 26.5 71.5 26.5h27c22.667 0 39.334 -6 50.001 -18v150c0 18.667 -4.83301 31.334 -14.5 38.001s-22.5 10 -38.5 10h-21
c-15.333 0 -27.833 -3.83301 -37.5 -11.5s-14.5 -19.834 -14.5 -36.501v-40h-46v56c0 7.33301 1.83301 15.5 5.5 24.5s9.33398 17.5 17.001 25.5s17.5 14.667 29.5 20s26.333 8 43 8h27c17.333 0 32 -2.66699 44 -8s21.833 -12 29.5 -20s13.334 -16.5 17.001 -25.5
s5.5 -17.167 5.5 -24.5v-504h27c37.333 0 56 18.333 56 55v510c0 28 -9.83301 50.5 -29.5 67.5s-46.834 25.5 -81.501 25.5h-144c-36 0 -63.333 -8 -82 -24s-28 -39 -28 -69v-593c0 -26.667 9.66699 -48.5 29 -65.5s46.333 -25.5 81 -25.5h172v-44zM323.997 119v270
c0 12 -4.83301 21.667 -14.5 29s-22.5 11 -38.5 11h-21c-14.667 0 -27 -4 -37 -12s-15 -20.333 -15 -37v-215c0 -14.667 4.83301 -26 14.5 -34s22.167 -12 37.5 -12h74z" />
    <glyph glyph-name="A" unicode="A" horiz-adv-x="252" 
d="M246 0h-42l-30 248h-95l-28 -248h-45l100 819h37zM83 293h87l-41 355l-4 59l-3 -59z" />
    <glyph glyph-name="B" unicode="B" horiz-adv-x="329" 
d="M49 0l0.00195312 818.998h142c30 0 53.667 -6.66699 71 -20s26 -32.666 26 -57.999v-178c0 -18.667 -3.33301 -33 -10 -43s-15.334 -17.333 -26.001 -22c11.333 -5.33301 20.166 -13.5 26.499 -24.5s9.5 -25.167 9.5 -42.5v-353c0 -21.333 -7.33301 -39.666 -22 -54.999
s-39.667 -23 -75 -23h-142zM95.002 773.998v-253h94c35.333 0 53 16.333 53 49v163c0 12.667 -4 22.667 -12 30s-21.667 11 -41 11h-94zM95.002 475.998v-431.999h94c17.333 0 30.5 3.66699 39.5 11s13.5 16.666 13.5 27.999v345c0 32 -17.667 48 -53 48h-94z" />
    <glyph glyph-name="C" unicode="C" horiz-adv-x="322" 
d="M193 819c12.667 0 24.832 -1.99707 36.499 -5.99707s22 -9.5 31 -16.5s16.167 -15.667 21.5 -26s8 -21.833 8 -34.5v-170h-46v167c0 13.333 -4.83301 23.333 -14.5 30s-22.167 10 -37.5 10h-53c-15.333 0 -27.833 -3.33301 -37.5 -10s-14.5 -16.667 -14.5 -30v-646
c0 -12 4.33301 -22.5 13 -31.5s21.667 -13.5 39 -13.5h53c19.333 0 32.833 4.66699 40.5 14s11.5 20.666 11.5 33.999v158h46v-172c0 -9.33301 -1.66699 -18.833 -5 -28.5s-8.66602 -18.334 -15.999 -26.001s-17.333 -13.834 -30 -18.501s-28 -7 -46 -7h-55
c-30 0 -53.667 7.16699 -71 21.5s-26 33.833 -26 58.5v660c0 24.667 9.16699 44.667 27.5 60s41.5 23 69.5 23h55z" />
    <glyph glyph-name="D" unicode="D" horiz-adv-x="306" 
d="M44 0v819h129c30.667 0 54.167 -7.33301 70.5 -22s24.5 -33.334 24.5 -56.001v-663c0 -21.333 -7.16699 -39.666 -21.5 -54.999s-38.833 -23 -73.5 -23h-129zM90 773v-726.999h80c15.333 0 27.666 3 36.999 9s14 15.333 14 28v654
c0 9.33301 -4.16699 17.666 -12.5 24.999s-21.166 11 -38.499 11h-80z" />
    <glyph glyph-name="E" unicode="E" horiz-adv-x="253" 
d="M90 521h103v-45h-103v-430h147v-46h-193v819h193v-46h-147v-252z" />
    <glyph glyph-name="F" unicode="F" horiz-adv-x="259" 
d="M95 521h147v-45h-147v-476h-46v819h193v-46h-147v-252z" />
    <glyph glyph-name="G" unicode="G" horiz-adv-x="323" 
d="M196 819c26 0 48.667 -7.16992 68 -21.5029s29 -33.166 29 -56.499v-132h-46v117c0 15.333 -4 27 -12 35s-21.333 12 -40 12h-53c-17.333 0 -30.333 -4.33301 -39 -13s-13 -20 -13 -34v-639c0 -14 4.33301 -25 13 -33s21.667 -12 39 -12h53c18.667 0 32 3.83301 40 11.5
s12 18.834 12 33.501v389h-79v48h125v-448c0 -24.667 -9 -44.167 -27 -58.5s-41.333 -21.5 -70 -21.5h-55c-26.667 0 -49.5 6.83301 -68.5 20.5s-28.5 33.5 -28.5 59.5v656c0 24.667 8.33301 45.334 25 62.001s40.667 25 72 25h55z" />
    <glyph glyph-name="H" unicode="H" horiz-adv-x="301" 
d="M211 819h46v-819h-46v476h-121v-476h-46v819h46v-298h121v298z" />
    <glyph glyph-name="I" unicode="I" horiz-adv-x="133" 
d="M90 819v-819h-46v819h46z" />
    <glyph glyph-name="J" unicode="J" horiz-adv-x="265" 
d="M113 -4c-31.333 0 -55.168 7.66797 -71.501 23.001s-24.5 38 -24.5 68v161h46v-161c0 -31.333 17.333 -47 52 -47h8c16 0 28.667 3.66699 38 11s14 20.666 14 39.999v727h46v-731c0 -25.333 -6.66699 -46.833 -20 -64.5s-38.666 -26.5 -75.999 -26.5h-12z" />
    <glyph glyph-name="K" unicode="K" horiz-adv-x="303" 
d="M90 0h-46v819h46v-358l146 358h52l-180 -435l189 -384h-51l-156 316v-316z" />
    <glyph glyph-name="L" unicode="L" horiz-adv-x="243" 
d="M237 46v-46h-193v819h46v-773h147z" />
    <glyph glyph-name="M" unicode="M" horiz-adv-x="411" 
d="M90 0h-46v819h84l79 -580l78 580h82v-819h-46v781l-85 -576h-58l-88 576v-781z" />
    <glyph glyph-name="N" unicode="N" horiz-adv-x="343" 
d="M90 686v-686h-46v819h76v-2l123 -656l10 -83v86v655h47v-819h-71l-129 686l-10 82v-82z" />
    <glyph glyph-name="O" unicode="O" horiz-adv-x="330" 
d="M138 774c-15.333 0 -27.667 -4.16699 -37 -12.5s-14 -19.833 -14 -34.5v-640c0 -13.333 4.5 -24.333 13.5 -33s21.5 -13 37.5 -13h53c34.667 0 52 15.667 52 47v639c0 31.333 -17.333 47 -52 47h-53zM136.999 -4c-30 0 -53.5029 8.16797 -70.5029 24.501
s-25.5 37.166 -25.5 62.499v653c0 23.333 8.33301 43 25 59s42.334 24 77.001 24h45c30 0 54.333 -7.83301 73 -23.5s28 -36.5 28 -62.5v-650c0 -12 -1.66699 -23.167 -5 -33.5s-8.66602 -19.5 -15.999 -27.5s-17.166 -14.333 -29.499 -19s-27.5 -7 -45.5 -7h-56z" />
    <glyph glyph-name="P" unicode="P" 
d="M95 773v-480h94c19.333 0 33 4 41 12s12 19.667 12 35v392c0 13.333 -5 23.5 -15 30.5s-22.667 10.5 -38 10.5h-94zM95 0l-46 0.000976562v819h142c31.333 0 55.333 -6.83301 72 -20.5s25 -32.834 25 -57.501v-401c0 -29.333 -8.5 -52 -25.5 -68s-41.5 -24 -73.5 -24h-94
v-248z" />
    <glyph glyph-name="Q" unicode="Q" horiz-adv-x="335" 
d="M140 -4c-30.667 0 -54.335 8.16797 -71.002 24.501s-25 37.166 -25 62.499v653c0 23.333 8.33301 43 25 59s42.334 24 77.001 24h45c30 0 54.333 -7.83301 73 -23.5s28 -36.5 28 -62.5v-650c0 -16 -3.16699 -30.5 -9.5 -43.5s-16.166 -23.167 -29.499 -30.5l26 -64h-46
l-22 52c-3.33301 -0.666992 -8.33301 -1 -15 -1h-56zM233.999 54.001c8 6.66699 11.999 18 11.999 34v639c0 31.333 -17.667 47 -53 47h-52c-15.333 0 -27.666 -4.16699 -36.999 -12.5s-14 -19.833 -14 -34.5v-640c0 -13.333 4.5 -24.333 13.5 -33s21.5 -13 37.5 -13h52
l-27 68h46z" />
    <glyph glyph-name="R" unicode="R" horiz-adv-x="329" 
d="M95 773v-276h94c17.333 0 30.5 3.5 39.5 10.5s13.5 19.167 13.5 36.5v184c0 14 -4.5 25 -13.5 33s-22.167 12 -39.5 12h-94zM242 402c0 33.333 -17.665 49.999 -52.998 49.999h-94v-452h-46v819h135c69.333 0 104 -29 104 -87v-203c0 -15.333 -3.33301 -27.5 -10 -36.5
s-15.334 -15.167 -26.001 -18.5c9.33301 -5.33301 17.666 -13.166 24.999 -23.499s11 -25.833 11 -46.5v-404h-46v402z" />
    <glyph glyph-name="S" unicode="S" horiz-adv-x="304" 
d="M122 -4c-28 0 -51.5 6.83105 -70.5 20.498s-28.5 35.834 -28.5 66.501v165h46v-165c0 -14 4.83301 -24.333 14.5 -31s22.5 -10 38.5 -10h52c16 0 29 4.16699 39 12.5s15 21.166 15 38.499v290c0 14.667 -4.5 26.334 -13.5 35.001s-24.167 13 -45.5 13h-41
c-30 0 -54.833 6.83301 -74.5 20.5s-29.5 35.167 -29.5 64.5v217c0 27.333 9.83301 48.5 29.5 63.5s44.167 22.5 73.5 22.5h46c27.333 0 51 -7.33301 71 -22s30 -36.667 30 -66v-165h-46v160c0 14 -4 25.333 -12 34s-21.667 13 -41 13h-52
c-18.667 0 -32.167 -4.16699 -40.5 -12.5s-12.5 -19.833 -12.5 -34.5v-205c0 -13.333 4.83301 -24.166 14.5 -32.499s24.167 -12.5 43.5 -12.5h36c35.333 0 62.5 -7.16699 81.5 -21.5s28.5 -36.833 28.5 -67.5v-306c0 -24.667 -8.66699 -45 -26 -61s-42.333 -24 -75 -24h-51
z" />
    <glyph glyph-name="T" unicode="T" horiz-adv-x="242" 
d="M6 773v46h230v-46h-93v-773h-44v773h-93z" />
    <glyph glyph-name="U" unicode="U" horiz-adv-x="332" 
d="M145 -4c-33.333 0 -59 7.83008 -77 23.4971s-27 37.834 -27 66.501v733h46v-733c0 -13.333 4.83301 -24.166 14.5 -32.499s22.5 -12.5 38.5 -12.5h52c17.333 0 30.333 4 39 12s13 18.333 13 31v735h47v-736c0 -23.333 -7.83301 -43.666 -23.5 -60.999
s-42.167 -26 -79.5 -26h-43z" />
    <glyph glyph-name="V" unicode="V" horiz-adv-x="335" 
d="M187 0h-37l-144 819h52l103 -614l5 -71l6 71l108 614h49z" />
    <glyph glyph-name="W" unicode="W" horiz-adv-x="606" 
d="M452 205l100 614h48l-143 -819h-37l-103 607l-12 97l-13 -97l-106 -607h-38l-142 819h50l100 -614l12 -92l11 92l97 614h53l100 -614l11 -94z" />
    <glyph glyph-name="X" unicode="X" horiz-adv-x="272" 
d="M128 283l-69 -283h-50l104 429l-86 390h46l62 -270l5 -40l4 40l57 270h45l-84 -398l101 -421h-51l-68 283l-8 54z" />
    <glyph glyph-name="Y" unicode="Y" horiz-adv-x="312" 
d="M178 351v-351h-45v351l-123 468h54l86 -343l6 -47l7 47l85 343h54z" />
    <glyph glyph-name="Z" unicode="Z" horiz-adv-x="219" 
d="M204 46v-46h-194v4l155 769h-139v46h183v-42l-137 -731h132z" />
    <glyph glyph-name="bracketleft" unicode="[" horiz-adv-x="197" 
d="M170 870v-39h-80v-881h80v-38h-126v958h126z" />
    <glyph glyph-name="backslash" unicode="\" horiz-adv-x="270" 
d="M243 -35h-46l-170 887h46z" />
    <glyph glyph-name="bracketright" unicode="]" horiz-adv-x="197" 
d="M27.0107 870v-39h79.9951v-881h-79.9951v-38h125.992v958h-125.992z" />
    <glyph glyph-name="asciicircum" unicode="^" horiz-adv-x="332" 
d="M166 868l155 -186l-21 -36l-134 149l-133 -149l-21 36z" />
    <glyph glyph-name="underscore" unicode="_" horiz-adv-x="289" 
d="M0 -77v46h289v-46h-289z" />
    <glyph glyph-name="grave" unicode="`" horiz-adv-x="332" 
d="M108 877h67l36 -154l-27 -16z" />
    <glyph glyph-name="a" unicode="a" horiz-adv-x="326" 
d="M135 384c-14 0 -26 -2.83301 -36 -8.5s-15 -16.167 -15 -31.5v-257c0 -27.333 16.667 -41 50 -41h55c14.667 0 26.834 3 36.501 9s14.5 17 14.5 33v256c0 13.333 -4.83301 23.333 -14.5 30s-21.834 10 -36.501 10h-54zM38 349c0 21.333 7.49805 39.999 22.498 55.999
s36.833 24 65.5 24h64c10.667 0 20.334 -1.66699 29.001 -5s15.667 -7.66602 21 -12.999v185c0 12.667 -4.16699 23.167 -12.5 31.5s-23.166 12.5 -44.499 12.5h-48c-14.667 0 -26.834 -4.16699 -36.501 -12.5s-14.5 -20.833 -14.5 -37.5v-114h-46v131
c0 20.667 8.33301 39 25 55s40.334 24 71.001 24h56c30 0 53.5 -7.83301 70.5 -23.5s25.5 -34.167 25.5 -55.5v-607h-46v18c-3.33301 -4 -9.83301 -8 -19.5 -12s-21.167 -6 -34.5 -6h-53c-30 0 -53.333 7.5 -70 22.5s-25 34.833 -25 59.5v267z" />
    <glyph glyph-name="b" unicode="b" 
d="M84 0l-46.001 0.000976562v819h46v-152c4.66699 4 11.167 8.16699 19.5 12.5s17.5 6.5 27.5 6.5h51c18.667 0 34.5 -3 47.5 -9s23.5 -13.5 31.5 -22.5s13.667 -19.333 17 -31s5 -22.834 5 -33.501v-489c0 -12 -1.66699 -24.167 -5 -36.5s-9 -23.166 -17 -32.499
s-18.667 -17 -32 -23s-29.666 -9 -48.999 -9h-44c-9.33301 0 -18.333 1.16699 -27 3.5s-17 7.16602 -25 14.499v-18zM184.999 44.001c15.333 0 27.833 4.83203 37.5 14.499s14.5 20.834 14.5 33.501v501c0 14.667 -4.33301 26.167 -13 34.5s-22.667 12.5 -42 12.5h-48
c-33.333 0 -50 -14 -50 -42v-506c0 -32 16.667 -48 50 -48h51z" />
    <glyph glyph-name="c" unicode="c" horiz-adv-x="296" 
d="M174 686c28 0 50.8301 -7.50098 68.4971 -22.501s26.5 -33.833 26.5 -56.5v-131h-45v114c0 15.333 -3.66699 27.5 -11 36.5s-20.666 13.5 -39.999 13.5h-35c-16 0 -28.5 -4.16699 -37.5 -12.5s-13.5 -20.833 -13.5 -37.5v-507c0 -11.333 4.33301 -21 13 -29
s21.334 -12 38.001 -12h35c34 0 51 14.667 51 44v119h45v-131c0 -9.33301 -2 -18.666 -6 -27.999s-9.83301 -17.666 -17.5 -24.999s-17.5 -13.333 -29.5 -18s-26 -7 -42 -7h-37c-27.333 0 -50.166 7 -68.499 21s-27.5 35.667 -27.5 65v517c0 25.333 8 46.166 24 62.499
s40 24.5 72 24.5h37z" />
    <glyph glyph-name="d" unicode="d" horiz-adv-x="332" 
d="M142 640c-17.333 0 -30.833 -3.66602 -40.5 -10.999s-14.5 -19.333 -14.5 -36v-498c0 -15.333 4.83301 -27.333 14.5 -36s23.167 -13 40.5 -13h49c33.333 0 50 15.667 50 47v502c0 13.333 -4 24.166 -12 32.499s-20.667 12.5 -38 12.5h-49zM41 590.001
c0 28 8.83105 51.001 26.498 69.001s42.5 27 74.5 27h51c9.33301 0 18.5 -1.83301 27.5 -5.5s15.833 -8.16699 20.5 -13.5v152h46v-819h-46v18c-5.33301 -4.66699 -12.166 -8.83398 -20.499 -12.501s-19.166 -5.5 -32.499 -5.5h-43c-32 0 -57.333 8.33301 -76 25
s-28 40 -28 70v495z" />
    <glyph glyph-name="e" unicode="e" horiz-adv-x="305" 
d="M87 84c0 -13.333 5.16699 -23.999 15.5 -31.999s23.833 -12 40.5 -12h27c36 0 54 15.667 54 47v118h45v-118c0 -12 -1.5 -23.333 -4.5 -34s-8.33301 -20.334 -16 -29.001s-18 -15.5 -31 -20.5s-29.5 -7.5 -49.5 -7.5h-22c-30 0 -55 7.83301 -75 23.5s-30 38.167 -30 67.5
v508c0 29.333 9 51.833 27 67.5s41 23.5 69 23.5h37c28 0 50.833 -7.5 68.5 -22.5s26.5 -37.5 26.5 -67.5v-257h-182v-255zM138 643.001c-15.333 0 -27.667 -4.16699 -37 -12.5s-14 -20.833 -14 -37.5v-209h137v209c0 14.667 -4.5 26.667 -13.5 36s-21.5 14 -37.5 14h-35z
" />
    <glyph glyph-name="f" unicode="f" horiz-adv-x="179" 
d="M173 774h-33c-17.333 0 -30.333 -4 -39 -12s-13 -18.333 -13 -31v-45h85v-46h-85v-640h-46v640h-25v46h25v50c0 23.333 8.5 43 25.5 59s40.5 24 70.5 24h35v-45z" />
    <glyph glyph-name="g" unicode="g" horiz-adv-x="330" 
d="M142 640c-17.333 0 -30.833 -3.66602 -40.5 -10.999s-14.5 -19.333 -14.5 -36v-455c0 -15.333 5.66699 -26.833 17 -34.5s23.333 -11.5 36 -11.5h51c18.667 0 31.667 4.16699 39 12.5s11 20.166 11 35.499v460c0 11.333 -3.83301 20.833 -11.5 28.5
s-20.5 11.5 -38.5 11.5h-49zM87 -131.999l102.002 0.000976562c16 0 28.667 3.66699 38 11s14 18.666 14 33.999v150c-6 -4.66699 -12.833 -8.66699 -20.5 -12s-16.834 -5 -27.501 -5h-48c-33.333 0 -59 9.33301 -77 28s-27 43.334 -27 74.001v442
c0 25.333 8.33301 47.666 25 66.999s42 29 76 29h51c5.33301 0 13 -1.5 23 -4.5s18.333 -7.83301 25 -14.5v22h46v-789c0 -21.333 -7.83301 -39.5 -23.5 -54.5s-39.834 -22.5 -72.501 -22.5h-104v45z" />
    <glyph glyph-name="h" unicode="h" horiz-adv-x="335" 
d="M248 593c0 14 -4.00098 25.333 -12.001 34s-22.333 13 -43 13h-48c-15.333 0 -27.5 -3.5 -36.5 -10.5s-13.5 -16.833 -13.5 -29.5v-600h-46v819h46v-152c4.66699 4.66699 10.834 9 18.501 13s17.167 6 28.5 6h51c30 0 54.333 -8.5 73 -25.5s28 -40.5 28 -70.5v-590h-46
v593v0z" />
    <glyph glyph-name="i" unicode="i" horiz-adv-x="159" 
d="M101 686v-686h-45v686h45zM58 748c-5.33301 0 -10 1.83301 -14 5.5s-6 8.16699 -6 13.5v41c0 5.33301 2 10 6 14s8.66699 6 14 6h41c5.33301 0 10 -2 14 -6s6 -8.66699 6 -14v-41c0 -5.33301 -2 -9.83301 -6 -13.5s-8.66699 -5.5 -14 -5.5h-41z" />
    <glyph glyph-name="j" unicode="j" horiz-adv-x="155" 
d="M-6 -131l5.99902 0.000976562c16.667 0 29.334 3.66699 38.001 11s13 17.333 13 30v776h46v-771c0 -28.667 -8.5 -50.834 -25.5 -66.501s-42.5 -23.5 -76.5 -23.5h-1v44zM53.999 748.001c-5.33301 0 -9.83301 1.83301 -13.5 5.5s-5.5 8.16699 -5.5 13.5v41
c0 5.33301 1.83301 10 5.5 14s8.16699 6 13.5 6h41c5.33301 0 10 -2 14 -6s6 -8.66699 6 -14v-41c0 -5.33301 -2 -9.83301 -6 -13.5s-8.66699 -5.5 -14 -5.5h-41z" />
    <glyph glyph-name="k" unicode="k" horiz-adv-x="333" 
d="M95 0h-46v819h46v-427l165 294h46l-175 -317l195 -369h-51l-180 337v-337z" />
    <glyph glyph-name="l" unicode="l" horiz-adv-x="151" 
d="M93 819v-778h58v-41h-102v819h44z" />
    <glyph glyph-name="m" unicode="m" horiz-adv-x="531" 
d="M388 686c30 0 54.498 -8.50195 73.498 -25.502s28.5 -40.5 28.5 -70.5v-590h-46v593c0 14 -4.66699 25.333 -14 34s-23.333 13 -42 13h-49c-15.333 0 -27.666 -3.16699 -36.999 -9.5s-14 -17.166 -14 -32.499v-598h-45v591c0 15.333 -4.33301 27.333 -13 36
s-23 13 -43 13h-47c-14.667 0 -27 -3.16699 -37 -9.5s-15 -17.166 -15 -32.499v-598h-44v686h44v-19c6.66699 5.33301 14.334 9.83301 23.001 13.5s19 5.5 31 5.5h45c17.333 0 32.5 -2.83301 45.5 -8.5s24.167 -12.5 33.5 -20.5c7.33301 7.33301 17.333 14 30 20
s26.667 9 42 9h50v0z" />
    <glyph glyph-name="n" unicode="n" horiz-adv-x="330" 
d="M243 595c0 13.333 -5.16504 24.167 -15.498 32.5s-24.166 12.5 -41.499 12.5h-46c-15.333 0 -27.5 -3.5 -36.5 -10.5s-13.5 -17.167 -13.5 -30.5v-599h-46v686h46v-19c4.66699 4 11 8.16699 19 12.5s17.333 6.5 28 6.5h51c13.333 0 26.166 -2 38.499 -6
s23.166 -10 32.499 -18s16.666 -17.5 21.999 -28.5s8 -23.5 8 -37.5v-596h-46v595v0z" />
    <glyph glyph-name="o" unicode="o" 
d="M175 42c34.667 0 52 16.001 52 48.001v508c0 13.333 -5 23.666 -15 30.999s-22.333 11 -37 11h-37c-13.333 0 -24.666 -3.83301 -33.999 -11.5s-14 -17.834 -14 -30.501v-508c0 -15.333 4.66699 -27.166 14 -35.499s21.666 -12.5 36.999 -12.5h34zM142 -3.99902
c-29.333 0 -52.999 7.66602 -70.999 22.999s-27 36.333 -27 63v518c0 23.333 8.16699 43.5 24.5 60.5s40.166 25.5 71.499 25.5h37c26.667 0 49 -7.16699 67 -21.5s27 -36.166 27 -65.499v-517c0 -25.333 -7.5 -46 -22.5 -62s-40.167 -24 -75.5 -24h-31z" />
    <glyph glyph-name="p" unicode="p" horiz-adv-x="334" 
d="M193 46c20 0 34.167 4.50195 42.5 13.502s12.5 19.833 12.5 32.5v503c0 13.333 -4.33301 24.166 -13 32.499s-22.667 12.5 -42 12.5h-50c-15.333 0 -27.166 -3.33301 -35.499 -10s-12.5 -17.334 -12.5 -32.001v-511c0 -14.667 4.16699 -25.167 12.5 -31.5
s20.166 -9.5 35.499 -9.5h50zM95 689.002l-0.00195312 -22.001c3.33301 5.33301 9.16602 9.83301 17.499 13.5s18.166 5.5 29.499 5.5h51c30 0 54.333 -8.16699 73 -24.5s28 -40.166 28 -71.499v-491c0 -13.333 -1.66699 -26 -5 -38s-9.16602 -22.5 -17.499 -31.5
s-19.166 -16.167 -32.499 -21.5s-30 -8 -50 -8h-47c-11.333 0 -20.666 1.16699 -27.999 3.5s-13.666 6.83301 -18.999 13.5v-194h-46v866h46z" />
    <glyph glyph-name="q" unicode="q" horiz-adv-x="328" 
d="M289 -136l22 0.000976562v-41h-68v194c-4.66699 -7.33301 -10.834 -12 -18.501 -14s-17.167 -3 -28.5 -3h-49c-19.333 0 -35.666 2.66699 -48.999 8s-24 12.5 -32 21.5s-13.667 19.5 -17 31.5s-5 24.667 -5 38v491c0 31.333 9.16699 55.166 27.5 71.499
s42.833 24.5 73.5 24.5h51c12 0 22 -1.83301 30 -5.5s13.667 -8.16699 17 -13.5v22h46v-825zM243 598.001c0 28 -16.667 41.999 -50 41.999h-48c-18.667 0 -32.5 -4.16699 -41.5 -12.5s-13.5 -19.166 -13.5 -32.499v-503c0 -12.667 4.33301 -23.5 13 -32.5
s22.667 -13.5 42 -13.5h48c33.333 0 50 13.667 50 41v511z" />
    <glyph glyph-name="r" unicode="r" horiz-adv-x="260" 
d="M206 593c0 14 -3.66504 25.334 -10.998 34.001s-22 13 -44 13h-14c-16 0 -28.333 -3.33301 -37 -10s-13 -18.334 -13 -35.001v-595h-46v686h46v-19c3.33301 5.33301 9.16602 9.83301 17.499 13.5s18.166 5.5 29.499 5.5h17c29.333 0 53.5 -7.66699 72.5 -23
s28.5 -37 28.5 -65v-20h-46v15v0z" />
    <glyph glyph-name="s" unicode="s" 
d="M146 -4c-67.333 0 -100.998 30.335 -100.998 91.002v118h46v-115c0 -14.667 4.16699 -26.334 12.5 -35.001s21.166 -13 38.499 -13h33c16 0 29 4.16699 39 12.5s15 20.166 15 35.499v207c0 14 -4.66699 24.5 -14 31.5s-22 10.5 -38 10.5h-34
c-13.333 0 -25.833 1.5 -37.5 4.5s-21.834 8 -30.501 15s-15.667 16.167 -21 27.5s-8 25.333 -8 42v175c0 22.667 7.83301 42.167 23.5 58.5s39.167 24.5 70.5 24.5h38c27.333 0 50.166 -7.5 68.499 -22.5s27.5 -36.167 27.5 -63.5v-124h-45v117c0 32 -17.333 48 -52 48h-34
c-17.333 0 -30.166 -4.33301 -38.499 -13s-12.5 -20.334 -12.5 -35.001v-167c0 -12 4.33301 -22 13 -30s21.334 -12 38.001 -12h35c25.333 0 47.666 -7.16699 66.999 -21.5s29 -37.166 29 -68.499v-204c0 -30 -9.16699 -53.167 -27.5 -69.5s-42.5 -24.5 -72.5 -24.5h-28z
" />
    <glyph glyph-name="t" unicode="t" horiz-adv-x="198" 
d="M188 -3h-28.001c-34 0 -59.5 8 -76.5 24s-25.5 38 -25.5 66v553h-41v46h41v77l46 22v-99h84v-46h-84v-558c0 -12 4.33301 -21.833 13 -29.5s21.334 -11.5 38.001 -11.5h33v-44z" />
    <glyph glyph-name="u" unicode="u" horiz-adv-x="331" 
d="M86 90c0 -13.333 4.66602 -24.168 13.999 -32.501s21.666 -12.5 36.999 -12.5h52c19.333 0 32.833 3.5 40.5 10.5s11.5 17.5 11.5 31.5v599h46v-686h-46v17c-3.33301 -3.33301 -9.5 -7.16602 -18.5 -11.499s-20.833 -6.5 -35.5 -6.5h-44
c-13.333 0 -26.166 1.83301 -38.499 5.5s-23.166 9.5 -32.499 17.5s-17 18 -23 30s-9 26.333 -9 43v591h46v-596v0z" />
    <glyph glyph-name="v" unicode="v" horiz-adv-x="297" 
d="M166 0h-37l-123 686h48l93 -553l96 553h48z" />
    <glyph glyph-name="w" unicode="w" horiz-adv-x="529" 
d="M477 686h45l-121 -686h-36l-100 550c-4 -29.333 -8.5 -59.5 -13.5 -90.5s-10.333 -62 -16 -93l-17 -92l-16.5 -86.5c-12 -64 -24.667 -126.667 -38 -188h-36l-122 686h46l96 -553l95 553h41l96 -553z" />
    <glyph glyph-name="x" unicode="x" horiz-adv-x="265" 
d="M124 241l-68 -241h-50l103 369l-81 317h49l51 -202l5 -44l7 44l52 202h50l-85 -325l102 -361h-48l-69 241l-9 56z" />
    <glyph glyph-name="y" unicode="y" horiz-adv-x="330" 
d="M87 -132l102 0.000976562c19.333 0 32.833 4.16699 40.5 12.5s11.5 20.166 11.5 35.499v147c-6.66699 -4.66699 -13.667 -8.66699 -21 -12s-16.333 -5 -27 -5h-48c-34 0 -59.833 9.16699 -77.5 27.5s-26.5 42.5 -26.5 72.5v540h46v-544c0 -16 5.33301 -28.333 16 -37
s25.667 -13 45 -13h43c18 0 30.833 3.66699 38.5 11s11.5 19.666 11.5 36.999v546h46v-776c0 -25.333 -7.5 -46.166 -22.5 -62.499s-40.5 -24.5 -76.5 -24.5h-101v45z" />
    <glyph glyph-name="z" unicode="z" horiz-adv-x="218" 
d="M202 46v-46h-192v5l151 635h-135v46h181v-43l-139 -597h134z" />
    <glyph glyph-name="braceleft" unicode="{" horiz-adv-x="188" 
d="M161 -75c-12 0 -23.667 1.66602 -35 4.99902s-21.666 8.66602 -30.999 15.999s-16.833 16.833 -22.5 28.5s-8.5 25.834 -8.5 42.501v310c0 14 -3.5 26.5 -10.5 37.5s-19.167 20.167 -36.5 27.5v8c14.667 4 26.167 10 34.5 18s12.5 20 12.5 36v328c0 22 8 41.333 24 58
s40.333 25 73 25v-44c-17.333 0 -30.166 -4.5 -38.499 -13.5s-12.5 -21.167 -12.5 -36.5v-317c0 -13.333 -4 -25.333 -12 -36s-18 -18.334 -30 -23.001c11.333 -5.33301 21.166 -13.666 29.499 -24.999s12.5 -25.666 12.5 -42.999v-309c0 -14.667 4.66699 -26.5 14 -35.5
s21.666 -13.5 36.999 -13.5v-44z" />
    <glyph glyph-name="bar" unicode="|" horiz-adv-x="161" 
d="M105 881v-945h-46v945h46z" />
    <glyph glyph-name="braceright" unicode="}" horiz-adv-x="182" 
d="M27.0098 -75c11.999 0 23.666 1.66602 34.999 4.99902s21.666 8.66602 30.999 15.999s16.833 16.833 22.5 28.5c5.66602 11.667 8.49902 25.834 8.49902 42.501v310c0 14 3.5 26.5 10.499 37.5c7 11 19.166 20.167 36.498 27.5v8c-14.666 4 -26.165 10 -34.498 18
s-12.499 20 -12.499 36v328c0 22 -7.99902 41.333 -23.998 58s-40.3311 25 -72.9961 25v-44c17.332 0 30.165 -4.5 38.498 -13.5s12.499 -21.167 12.499 -36.5v-317c0 -13.333 4 -25.333 11.999 -36s17.998 -18.334 29.9971 -23.001
c-11.333 -5.33301 -21.166 -13.666 -29.499 -24.999s-12.499 -25.666 -12.499 -42.999v-309c0 -14.667 -4.66602 -26.5 -13.999 -35.5s-21.666 -13.5 -36.999 -13.5v-44z" />
    <glyph glyph-name="asciitilde" unicode="~" horiz-adv-x="417" 
d="M33 566c0 27.333 7.33008 50.833 21.9971 70.5s38 29.5 70 29.5c16 0 30.833 -3 44.5 -9s27.167 -12.5 40.5 -19.5s26.5 -13.5 39.5 -19.5s26.833 -9 41.5 -9c16.667 0 28.5 5.5 35.5 16.5s10.5 23.833 10.5 38.5h44c0 -12.667 -1.66699 -25 -5 -37
s-8.5 -22.833 -15.5 -32.5s-16.167 -17.334 -27.5 -23.001s-24.666 -8.5 -39.999 -8.5c-16 0 -30.667 3 -44 9s-26.666 12.5 -39.999 19.5s-26.666 13.5 -39.999 19.5s-28 9 -44 9c-10.667 0 -19 -2 -25 -6s-10.5 -8.66699 -13.5 -14s-5 -11.166 -6 -17.499
s-1.5 -11.833 -1.5 -16.5h-46v0z" />
    <glyph glyph-name="nonbreakingspace" unicode="&#xa0;" horiz-adv-x="276" 
 />
    <glyph glyph-name="exclamdown" unicode="&#xa1;" horiz-adv-x="177" 
d="M66 660.01l-8 -658.96h62l-8 658.96h-46zM65 820c-6 0 -11.167 -2 -15.5 -6c-4.33301 -3.99902 -6.5 -8.66504 -6.5 -13.998v-44.9971c0 -5.99902 2.16699 -11.165 6.5 -15.498s9.5 -6.5 15.5 -6.5h46c6.66699 0 12 2.16699 16 6.5s6 9.49902 6 15.498v44.9971
c0 5.33301 -2 9.99902 -6 13.998c-4 4 -9.33301 6 -16 6h-46z" />
    <glyph glyph-name="cent" unicode="&#xa2;" horiz-adv-x="317" 
d="M145 861c-18 0 -32.167 -3.83301 -42.5 -11.5s-15.5 -18.167 -15.5 -31.5v-543c0 -12.667 5.33301 -22.667 16 -30s24.667 -11.333 42 -12v628zM145 187c-30 0 -54.832 7.50098 -74.499 22.501s-29.5 36.833 -29.5 65.5v545c0 25.333 10 46 30 62s45 24.667 75 26v38h38
v-38c36 0 62.833 -8.5 80.5 -25.5s26.5 -38.833 26.5 -65.5v-121h-47v122c0 28.667 -20 43 -60 43v-628c21.333 0 36.666 3.66699 45.999 11s14 17.666 14 30.999v122h47v-122c0 -28.667 -9.33301 -50.5 -28 -65.5s-45 -22.5 -79 -22.5v-53h-39v53z" />
    <glyph glyph-name="sterling" unicode="&#xa3;" horiz-adv-x="283" 
d="M47 429l0.000976562 307c0 25.333 8.33301 45.5 25 60.5s40 22.5 70 22.5h27c29.333 0 52.666 -7 69.999 -21s26 -34.667 26 -62v-170h-46v160c0 15.333 -3.83301 27.166 -11.5 35.499s-21.5 12.5 -41.5 12.5h-21c-18 0 -31.167 -4.16699 -39.5 -12.5
s-12.5 -20.166 -12.5 -35.499v-297h90v-46h-90v-41h90v-45h-90v-251h173v-46h-219v297h-20v45h20v41h-20v46h20z" />
    <glyph glyph-name="currency" unicode="&#xa4;" 
d="M116 160l-5 -30.9971h-46l8 49c-10.667 7.33301 -18.167 16.666 -22.5 27.999s-6.5 24.666 -6.5 39.999v362c2 25.333 13 45.333 33 60l-9 46h46l5 -28h77l5 28h46l-9 -46c9.33301 -7.33301 16.833 -15.833 22.5 -25.5s9.16699 -21.167 10.5 -34.5v-362
c0 -30.667 -10 -53.334 -30 -68.001l9 -49h-46l-6 31h-82zM175 205.003c34.667 0 52 15.6689 52 47.002v346c0 13.333 -5 23.666 -15 30.999s-22.333 11 -37 11h-37c-13.333 0 -24.666 -3.83301 -33.999 -11.5s-14 -17.834 -14 -30.501v-346c0 -15.333 4.66699 -27 14 -35
s21.666 -12 36.999 -12h34z" />
    <glyph glyph-name="yen" unicode="&#xa5;" horiz-adv-x="305" 
d="M128 248v45h-77v46h77l-122 480h54l86 -343l6 -47l7 47l85 343h54l-123 -480h77v-46h-77v-45h77v-43h-77v-205h-47v205h-77v43h77z" />
    <glyph glyph-name="brokenbar" unicode="&#xa6;" horiz-adv-x="256" 
d="M91 447v372h60v-372h-60zM91 0v372h60v-372h-60z" />
    <glyph glyph-name="section" unicode="&#xa7;" horiz-adv-x="311" 
d="M174 573c25.333 0 47.6689 -7.16504 67.002 -21.498s29 -36.833 29 -67.5v-141c0 -31.333 -9.66699 -54.666 -29 -69.999c9.33301 -8 16.5 -17.5 21.5 -28.5s7.5 -24.167 7.5 -39.5v-115c0 -30 -9.16699 -53.167 -27.5 -69.5s-42.5 -24.5 -72.5 -24.5h-28
c-67.333 0 -101 30.333 -101 91v79h46v-76c0 -14.667 4.16699 -26.334 12.5 -35.001s21.166 -13 38.499 -13h34c16 0 28.833 4.16699 38.5 12.5s14.5 20.166 14.5 35.499v117c0 13.333 -4.16699 23.5 -12.5 30.5s-19.5 11.167 -33.5 12.5h-39
c-13.333 0 -25.833 1.5 -37.5 4.5s-22 8 -31 15s-16.167 16.167 -21.5 27.5s-8 25 -8 41v152c0 24.667 8.66699 44.667 26 60c-17.333 14 -26 36.333 -26 67v119c0 22.667 7.83301 42.167 23.5 58.5s39.167 24.5 70.5 24.5h38c27.333 0 50.166 -7.5 68.499 -22.5
s27.5 -36.167 27.5 -63.5v-74h-45v67c0 32 -17.333 48 -52 48h-33c-17.333 0 -30.333 -4.33301 -39 -13s-13 -20.334 -13 -35.001v-110c0 -11.333 3.83301 -21 11.5 -29s18.5 -12.667 32.5 -14h42zM88.0029 337.002c0 -12.667 4.33301 -23 13 -31s21.667 -11.333 39 -10h32
c16 0 28.833 4 38.5 12s14.5 19.667 14.5 35v143c0 14.667 -4.66699 25.5 -14 32.5s-22 10.5 -38 10.5h-33c-17.333 0 -30.333 -4.5 -39 -13.5s-13 -20.833 -13 -35.5v-143z" />
    <glyph glyph-name="dieresis" unicode="&#xa8;" horiz-adv-x="305" 
d="M64 733c-4.66699 0 -8.83398 1.66699 -12.501 5s-5.5 7.66602 -5.5 12.999v38c0 6 1.83301 10.833 5.5 14.5s7.83398 5.5 12.501 5.5h39c12.667 0 19 -6.66699 19 -20v-38c0 -5.33301 -1.83301 -9.66602 -5.5 -12.999s-8.16699 -5 -13.5 -5h-39zM201 733
c-4.66699 0 -8.83398 1.66699 -12.501 5s-5.5 7.66602 -5.5 12.999v38c0 6 1.83301 10.833 5.5 14.5s7.83398 5.5 12.501 5.5h39c12.667 0 19 -6.66699 19 -20v-38c0 -5.33301 -1.83301 -9.66602 -5.5 -12.999s-8.16699 -5 -13.5 -5h-39z" />
    <glyph glyph-name="copyright" unicode="&#xa9;" horiz-adv-x="431" 
d="M72 342c0 -30 9.33301 -53.167 28 -69.5s46 -24.5 82 -24.5h65c34.667 0 61.834 8.66699 81.501 26s29.5 40 29.5 68v384c0 28 -9.83301 50.5 -29.5 67.5s-46.834 25.5 -81.501 25.5h-65c-36 0 -63.333 -8 -82 -24s-28 -39 -28 -69v-384zM27 724
c0 40.667 13.5 73.667 40.5 99s66.833 38 119.5 38h57c47.333 0 85.833 -11.833 115.5 -35.5s44.5 -57.5 44.5 -101.5v-381c0 -44 -14.833 -77.833 -44.5 -101.5s-68.167 -35.5 -115.5 -35.5h-57c-52.667 0 -92.5 12.667 -119.5 38s-40.5 58.333 -40.5 99v381zM218 772
c28 0 50.667 -7.66797 68 -23.001s26 -34.333 26 -57v-87h-44v71c0 14.667 -3.66699 26.667 -11 36s-21 14 -41 14c-16 0 -28.5 -4.16699 -37.5 -12.5s-13.5 -20.833 -13.5 -37.5v-288c0 -11.333 4.33301 -21 13 -29s21.334 -12 38.001 -12c34.667 0 52 14.333 52 43v76h44
v-87c0 -9.33301 -1.83301 -18.666 -5.5 -27.999s-9.5 -17.666 -17.5 -24.999s-18 -13.333 -30 -18s-26.333 -7 -43 -7c-26.667 0 -49.5 7 -68.5 21s-28.5 35.667 -28.5 65v298c0 25.333 8.16699 46.166 24.5 62.499s41.166 24.5 74.499 24.5z" />
    <glyph glyph-name="ordfeminine" unicode="&#xaa;" horiz-adv-x="274" 
d="M132 716c-14 0 -26 -3 -36 -9s-15 -16.333 -15 -31v-113c0 -27.333 16.667 -41 50 -41h11c15.333 0 27.666 3 36.999 9s14 17 14 33v112c0 12.667 -4.66699 22.5 -14 29.5s-21.666 10.5 -36.999 10.5h-10zM35 681c0 21.333 7.33398 39.833 22.001 55.5
s36.667 23.5 66 23.5h20c22.667 0 39.334 -6 50.001 -18v99c0 12 -3.5 22.167 -10.5 30.5s-22.167 12.5 -45.5 12.5c-20.667 0 -35.167 -3.83301 -43.5 -11.5s-12.5 -20.167 -12.5 -37.5v-45h-46v61c0 20.667 8.16699 39.167 24.5 55.5s40.166 24.5 71.499 24.5h12
c30 0 53.5 -8 70.5 -24s25.5 -34.667 25.5 -56v-375h-46v18c-3.33301 -4 -9.83301 -8 -19.5 -12s-20.834 -6 -33.501 -6h-11c-30 0 -53.167 7.5 -69.5 22.5s-24.5 34.833 -24.5 59.5v123zM35.001 384v41h206v-41h-206z" />
    <glyph glyph-name="guillemotleft" unicode="&#xab;" horiz-adv-x="361" 
d="M47 309l121 220l14 -22l-62 -198l62 -199l-14 -22zM174 309l120 220l14 -22l-61 -198l61 -199l-14 -22z" />
    <glyph glyph-name="logicalnot" unicode="&#xac;" horiz-adv-x="328" 
d="M50 293h233v-146h-45v101h-188v45z" />
    <glyph glyph-name="registered" unicode="&#xae;" horiz-adv-x="431" 
d="M72 342c0 -30 9.33301 -53.167 28 -69.5s46 -24.5 82 -24.5h65c34.667 0 61.834 8.66699 81.501 26s29.5 40 29.5 68v384c0 28 -9.83301 50.5 -29.5 67.5s-46.834 25.5 -81.501 25.5h-65c-36 0 -63.333 -8 -82 -24s-28 -39 -28 -69v-384zM27 724
c0 40.667 13.5 73.667 40.5 99s66.833 38 119.5 38h57c47.333 0 85.833 -11.833 115.5 -35.5s44.5 -57.5 44.5 -101.5v-381c0 -44 -14.833 -77.833 -44.5 -101.5s-68.167 -35.5 -115.5 -35.5h-57c-52.667 0 -92.5 12.667 -119.5 38s-40.5 58.333 -40.5 99v381zM165 726
v-185.999h51c17.333 0 30.5 3.66699 39.5 11s13.5 19.666 13.5 36.999v93c0 14 -4.5 25 -13.5 33s-22.167 12 -39.5 12h-51zM269 445.001c0 33.333 -17.665 49.999 -52.998 49.999h-51v-194h-46v471h92c69.333 0 104 -29 104 -87v-113c0 -14.667 -3.33301 -26.667 -10 -36
s-15.334 -15.666 -26.001 -18.999c9.33301 -5.33301 17.666 -13 24.999 -23s11 -25.333 11 -46v-147h-46v144z" />
    <glyph glyph-name="macron" unicode="&#xaf;" horiz-adv-x="335" 
d="M44 773v46h248v-46h-248z" />
    <glyph glyph-name="degree" unicode="&#xb0;" horiz-adv-x="179" 
d="M-1 767c0 24 8.33301 44.667 25 62s37.334 26 62.001 26c12 0 23.333 -2.33301 34 -7s20 -11 28 -19s14.333 -17.333 19 -28s7 -22 7 -34c0 -24.667 -8.66699 -45.334 -26 -62.001s-38 -25 -62 -25c-24.667 0 -45.334 8.33301 -62.001 25s-25 37.334 -25 62.001zM32 767
c0 -15.333 5.16699 -28.166 15.5 -38.499s23.166 -15.5 38.499 -15.5c14.667 0 27.334 5.16699 38.001 15.5s16 23.166 16 38.499c0 14.667 -5.33301 27.167 -16 37.5s-23.334 15.5 -38.001 15.5c-15.333 0 -28.166 -5.16699 -38.499 -15.5s-15.5 -22.833 -15.5 -37.5z" />
    <glyph glyph-name="plusminus" unicode="&#xb1;" horiz-adv-x="246" 
d="M50 113h146v-45h-146v45zM101 209h-51v44h51v50h45v-50h50v-44h-50v-52h-45v52z" />
    <glyph glyph-name="twosuperior" unicode="&#xb2;" horiz-adv-x="265" 
d="M136 705c15.333 0 27.167 4.16797 35.5 12.501s12.5 18.833 12.5 31.5v95c0 28.667 -16.667 43 -50 43c-14.667 0 -26.5 -3 -35.5 -9s-13.5 -17.333 -13.5 -34v-30h-41v39c0 24 7.83301 42.5 23.5 55.5s38.5 19.5 68.5 19.5c25.333 0 46.333 -6.33301 63 -19
s25 -29.667 25 -51v-118c0 -24 -6.83301 -42.5 -20.5 -55.5s-37.5 -19.5 -71.5 -19.5c-31.333 0 -47 -14.667 -47 -44v-102h141v-41h-182v149c0 25.333 8.16699 44.666 24.5 57.999s38.833 20 67.5 20z" />
    <glyph glyph-name="threesuperior" unicode="&#xb3;" horiz-adv-x="248" 
d="M110 479c-22.667 0 -42.1641 6.50293 -58.4971 19.5029s-24.5 31.833 -24.5 56.5v43h41v-42c0 -11.333 3.66699 -20.166 11 -26.499s17.666 -9.5 30.999 -9.5h24c30.667 0 46 11.667 46 35v89c0 13.333 -2.83301 23.666 -8.5 30.999s-17.167 11 -34.5 11v41
c7.33301 1.33301 14.333 3.66602 21 6.99902c5.33301 3.33301 10.333 7.5 15 12.5s7 11.833 7 20.5v77c0 13.333 -3.83301 23.833 -11.5 31.5s-19.834 11.5 -36.501 11.5h-13c-15.333 0 -27.666 -2.83301 -36.999 -8.5s-14 -14.834 -14 -27.501v-36h-41v43
c0 19.333 8.16699 35.833 24.5 49.5s37.166 20.5 62.499 20.5h20c30 0 52 -6.33301 66 -19s21 -29.667 21 -51v-98c0 -11.333 -2.5 -21.833 -7.5 -31.5s-12.167 -16.834 -21.5 -21.501c8.66699 -4 15.667 -10.333 21 -19s8 -18.667 8 -30v-109
c0 -21.333 -7.83301 -38.333 -23.5 -51s-36.834 -19 -63.501 -19h-24z" />
    <glyph glyph-name="acute" unicode="&#xb4;" horiz-adv-x="332" 
d="M157 707l-26 16l35 154h68z" />
    <glyph glyph-name="mu" unicode="&#xb5;" horiz-adv-x="339" 
d="M95 686v-600.001c0.666992 -12.667 5.5 -22.667 14.5 -30s21.167 -11 36.5 -11h52c19.333 0 32.833 3.5 40.5 10.5s11.5 17.5 11.5 31.5v599h46v-686h-46v17c-3.33301 -3.33301 -9.5 -7.16602 -18.5 -11.499s-20.833 -6.5 -35.5 -6.5h-44c-10 0 -20 1 -30 3
s-19 5.66699 -27 11v-190h-46v863h46z" />
    <glyph glyph-name="paragraph" unicode="&#xb6;" horiz-adv-x="366" 
d="M323 819v-883h-45v883h45zM223 819l-0.00292969 -883.002h-46v429h-16c-17.333 0 -34.166 2.33301 -50.499 7s-30.666 11.834 -42.999 21.501s-22.166 21.667 -29.499 36s-11 31.166 -11 50.499v225c0 14.667 2.83301 28.834 8.5 42.501s14 25.834 25 36.501
s25 19.167 42 25.5s36.5 9.5 58.5 9.5h62z" />
    <glyph glyph-name="periodcentered" unicode="&#xb7;" horiz-adv-x="337" 
d="M114 309c0 15.333 5.16699 28.333 15.5 39s23.166 16 38.499 16s28.333 -5.33301 39 -16s16 -23.667 16 -39s-5.33301 -28 -16 -38s-23.667 -15 -39 -15s-28.166 5 -38.499 15s-15.5 22.667 -15.5 38z" />
    <glyph glyph-name="cedilla" unicode="&#xb8;" horiz-adv-x="195" 
d="M99 26h44l-43 -125h-45z" />
    <glyph glyph-name="onesuperior" unicode="&#xb9;" horiz-adv-x="174" 
d="M50 799l-31 15l72 115h40v-449h-40v381z" />
    <glyph glyph-name="ordmasculine" unicode="&#xba;" horiz-adv-x="293" 
d="M28 384v41h236v-41h-236zM74 594c0 -22.667 6.33301 -40.332 19 -52.999s30.667 -19 54 -19c21.333 0 38.5 6.5 51.5 19.5s19.5 30.167 19.5 51.5v224c0 21.333 -6.5 38.333 -19.5 51s-30.167 19 -51.5 19c-23.333 0 -41.333 -6.33301 -54 -19s-19 -30.334 -19 -53.001
v-221zM148 933.002c36 0 64.333 -10.667 85 -32s31 -50.333 31 -87v-219c0 -36.667 -10.333 -65.667 -31 -87s-49 -32 -85 -32c-15.333 0 -30.166 2.5 -44.499 7.5s-27 12.5 -38 22.5s-20 22.333 -27 37s-10.5 32 -10.5 52v219c0 20 3.5 37.333 10.5 52s16 27 27 37
s23.667 17.5 38 22.5s29.166 7.5 44.499 7.5z" />
    <glyph glyph-name="guillemotright" unicode="&#xbb;" horiz-adv-x="361" 
d="M314.003 309l-120.993 220l-13.999 -22l61.9971 -198l-61.9971 -199l13.999 -22zM187.011 309l-119.993 220l-13.999 -22l60.9961 -198l-60.9961 -199l13.999 -22z" />
    <glyph glyph-name="onequarter" unicode="&#xbc;" horiz-adv-x="308" 
d="M95 689l-31 15l72 115h39v-363h-39v295zM44 370v33l221 46v-33zM213 360v-219h44v-41h-44v-100h-42v100h-114l33 260h42l-24 -219h63v219h42z" />
    <glyph glyph-name="onehalf" unicode="&#xbd;" horiz-adv-x="308" 
d="M44 370v33l221 46v-33zM95 689l-31 15l72 115h39v-363h-39v295zM156 168c15.333 0 27.167 4.16797 35.5 12.501s12.5 18.833 12.5 31.5v66c0 28.667 -16.667 43 -50 43c-14.667 0 -26.5 -3 -35.5 -9s-13.5 -17.333 -13.5 -34v-30h-41v39c0 24 7.83301 42.5 23.5 55.5
s38.5 19.5 68.5 19.5c25.333 0 46.333 -6.33301 63 -19s25 -29.667 25 -51v-88c0 -24.667 -6.83301 -43.5 -20.5 -56.5s-37.5 -19.5 -71.5 -19.5c-31.333 0 -47 -14.667 -47 -44v-43h141v-41h-182v90c0 25.333 8.16699 44.666 24.5 57.999s38.833 20 67.5 20z" />
    <glyph glyph-name="threequarters" unicode="&#xbe;" horiz-adv-x="326" 
d="M44 370v33l215 46l6 -33zM143 456c-22.667 0 -42.1641 6.5 -58.4971 19.5s-24.5 31.833 -24.5 56.5v43h41v-42c0 -11.333 3.66699 -20.166 11 -26.499s17.666 -9.5 30.999 -9.5h18c30.667 0 46 11.667 46 35v46c0 13.333 -3 23.666 -9 30.999s-18.667 11 -38 11v41
c31.333 0 47 13 47 39v32c0 13.333 -3.83301 24 -11.5 32s-19.834 12 -36.501 12h-7c-15.333 0 -27.666 -3 -36.999 -9s-14 -15 -14 -27v-36h-41v43c0 19.333 8.16699 35.833 24.5 49.5s37.166 20.5 62.499 20.5h14c30 0 52 -6.33301 66 -19s21 -29.667 21 -51v-53
c0 -11.333 -2.5 -22 -7.5 -32s-12.167 -17.333 -21.5 -22c8 -3.33301 14.833 -9.33301 20.5 -18s8.5 -18.667 8.5 -30v-66c0 -21.333 -7.83301 -38.333 -23.5 -51s-36.834 -19 -63.501 -19h-18zM230.003 360v-219h44v-41h-44v-100h-42v100h-114l33 260h42l-24 -219h63v219
h42z" />
    <glyph glyph-name="questiondown" unicode="&#xbf;" horiz-adv-x="334" 
d="M113.014 417.015c-8.66602 -5.33301 -14.666 -11.167 -17.999 -17.5s-5 -14.832 -5 -25.4971v-445.974c0 -15.332 4.16602 -26.998 12.499 -34.9971c8.33301 -8 22.499 -12 42.498 -12h48.9971c35.3311 0 52.9961 15.666 52.9961 46.9971v340.979h45.998v-346.979
c0 -25.332 -8.66602 -46.1641 -25.999 -62.4961c-17.332 -16.333 -42.3301 -24.499 -74.9951 -24.499h-44.9971c-32.665 0 -58.1641 7.5 -76.4971 22.499c-18.332 14.999 -27.498 35.1641 -27.498 60.4961v465.972c0 15.332 2.16699 27.8311 6.5 37.498
c4.33301 9.66602 12.166 17.499 23.499 23.498l88.9951 58.9961c11.999 8 20.832 15.666 26.498 22.999c5.66699 7.33301 8.5 17.332 8.5 29.998v96.9941h45.9971v-101.994c0 -17.332 -2.5 -31.6641 -7.5 -42.9971c-4.99902 -11.333 -15.165 -21.999 -30.498 -31.998z
M243.006 818.989c5.99902 0 11.165 -2 15.498 -6s6.49902 -8.66602 6.49902 -13.999v-44.9971c0 -6 -2.16602 -11.166 -6.49902 -15.499s-9.49902 -6.5 -15.498 -6.5h-45.9971c-6.66699 0 -12 2.16699 -15.999 6.5c-4 4.33301 -6 9.49902 -6 15.499v44.9971
c0 5.33301 2 9.99902 6 13.999c3.99902 4 9.33203 6 15.999 6h45.9971z" />
    <glyph glyph-name="Agrave" unicode="&#xc0;" horiz-adv-x="252" 
d="M246 0h-42l-30 248h-95l-28 -248h-45l100 819h37zM83 293h87l-41 355l-4 59l-3 -59zM38 1010h67l36 -154l-27 -16z" />
    <glyph glyph-name="Aacute" unicode="&#xc1;" horiz-adv-x="252" 
d="M246 0h-42l-30 248h-95l-28 -248h-45l100 819h37zM83 293h87l-41 355l-4 59l-3 -59zM137 840l-26 16l35 154h68z" />
    <glyph glyph-name="Acircumflex" unicode="&#xc2;" horiz-adv-x="252" 
d="M246 0h-42l-30 248h-95l-28 -248h-45l100 819h37zM83 293h87l-41 355l-4 59l-3 -59zM135 1012l94 -135l-17 -28l-87 120l-86 -120l-17 28l93 135h20z" />
    <glyph glyph-name="Atilde" unicode="&#xc3;" horiz-adv-x="252" 
d="M246 0h-42l-30 248h-95l-28 -248h-45l100 819h37zM83 293h87l-41 355l-4 59l-3 -59zM6 866c0 23.333 6.16797 43.501 18.501 60.501s32.5 25.5 60.5 25.5c13.333 0 24.666 -2.5 33.999 -7.5s17.666 -10.5 24.999 -16.5s14.5 -11.5 21.5 -16.5s15.167 -7.5 24.5 -7.5
c14 0 23.667 5.33301 29 16s8 22.667 8 36h38c0 -24.667 -5.5 -46.167 -16.5 -64.5s-29.833 -27.5 -56.5 -27.5c-14 0 -25.5 2.5 -34.5 7.5s-17.167 10.667 -24.5 17s-14.666 12 -21.999 17s-16 7.5 -26 7.5c-9.33301 0 -16.5 -1.66699 -21.5 -5s-9 -7.33301 -12 -12
s-4.83301 -9.83398 -5.5 -15.501s-1 -10.5 -1 -14.5h-39v0z" />
    <glyph glyph-name="Adieresis" unicode="&#xc4;" horiz-adv-x="252" 
d="M246 0h-42l-30 248h-95l-28 -248h-45l100 819h37zM83 293h87l-41 355l-4 59l-3 -59zM40 866c-4.66699 0 -8.83398 1.66699 -12.501 5s-5.5 7.66602 -5.5 12.999v38c0 6 1.83301 10.833 5.5 14.5s7.83398 5.5 12.501 5.5h39c12.667 0 19 -6.66699 19 -20v-38
c0 -5.33301 -1.83301 -9.66602 -5.5 -12.999s-8.16699 -5 -13.5 -5h-39zM177 866c-4.66699 0 -8.83398 1.66699 -12.501 5s-5.5 7.66602 -5.5 12.999v38c0 6 1.83301 10.833 5.5 14.5s7.83398 5.5 12.501 5.5h39c12.667 0 19 -6.66699 19 -20v-38
c0 -5.33301 -1.83301 -9.66602 -5.5 -12.999s-8.16699 -5 -13.5 -5h-39z" />
    <glyph glyph-name="Aring" unicode="&#xc5;" horiz-adv-x="252" 
d="M246 0h-42l-30 248h-95l-28 -248h-45l100 819h37zM83 293h87l-41 355l-4 59l-3 -59zM39 873c0 24.667 8.33301 45.667 25 63s37.334 26 62.001 26c12 0 23.333 -2.33301 34 -7s20 -11 28 -19s14.333 -17.5 19 -28.5s7 -22.5 7 -34.5c0 -24 -8.66699 -44.5 -26 -61.5
s-38 -25.5 -62 -25.5c-24.667 0 -45.334 8.5 -62.001 25.5s-25 37.5 -25 61.5zM72 873c0 -14.667 5.16699 -27.167 15.5 -37.5s23.166 -15.5 38.499 -15.5c14.667 0 27.167 5.16699 37.5 15.5s15.5 22.833 15.5 37.5c0 15.333 -5.16699 28.166 -15.5 38.499
s-22.833 15.5 -37.5 15.5c-15.333 0 -28.166 -5.16699 -38.499 -15.5s-15.5 -23.166 -15.5 -38.499z" />
    <glyph glyph-name="AE" unicode="&#xc6;" horiz-adv-x="363" 
d="M212 521h104v-45h-104v-430h148v-46h-194v248h-87l-28 -248h-45l100 819h254v-46h-148v-252zM83 293h83v480h-26z" />
    <glyph glyph-name="Ccedilla" unicode="&#xc7;" horiz-adv-x="320" 
d="M196 819c12.667 0 24.832 -1.99707 36.499 -5.99707s22 -9.5 31 -16.5s16.167 -15.667 21.5 -26s8 -21.833 8 -34.5v-170h-46v167c0 13.333 -4.83301 23.333 -14.5 30s-22.167 10 -37.5 10h-53c-15.333 0 -27.833 -3.33301 -37.5 -10s-14.5 -16.667 -14.5 -30v-646
c0 -12 4.33301 -22.5 13 -31.5s21.667 -13.5 39 -13.5h53c19.333 0 32.833 4.66699 40.5 14s11.5 20.666 11.5 33.999v158h46v-172c0 -9.33301 -1.66699 -18.833 -5 -28.5s-8.66602 -18.334 -15.999 -26.001s-17.333 -13.834 -30 -18.501s-28 -7 -46 -7h-55
c-30 0 -53.667 7.16699 -71 21.5s-26 33.833 -26 58.5v660c0 24.667 9.16699 44.667 27.5 60s41.5 23 69.5 23h55zM156.998 26.0029h44l-43 -125h-45z" />
    <glyph glyph-name="Egrave" unicode="&#xc8;" horiz-adv-x="253" 
d="M90 521h103v-45h-103v-430h147v-46h-193v819h193v-46h-147v-252zM66 1010h67l36 -154l-27 -16z" />
    <glyph glyph-name="Eacute" unicode="&#xc9;" horiz-adv-x="253" 
d="M90 521h103v-45h-103v-430h147v-46h-193v819h193v-46h-147v-252zM143 840l-26 16l35 154h68z" />
    <glyph glyph-name="Ecircumflex" unicode="&#xca;" horiz-adv-x="253" 
d="M90 521h103v-45h-103v-430h147v-46h-193v819h193v-46h-147v-252zM149 1012l94 -135l-17 -28l-87 120l-86 -120l-17 28l93 135h20z" />
    <glyph glyph-name="Edieresis" unicode="&#xcb;" horiz-adv-x="253" 
d="M90 521h103v-45h-103v-430h147v-46h-193v819h193v-46h-147v-252zM51 866c-4.66699 0 -8.83398 1.66699 -12.501 5s-5.5 7.66602 -5.5 12.999v38c0 6 1.83301 10.833 5.5 14.5s7.83398 5.5 12.501 5.5h39c12.667 0 19 -6.66699 19 -20v-38
c0 -5.33301 -1.83301 -9.66602 -5.5 -12.999s-8.16699 -5 -13.5 -5h-39zM188 866c-4.66699 0 -8.83398 1.66699 -12.501 5s-5.5 7.66602 -5.5 12.999v38c0 6 1.83301 10.833 5.5 14.5s7.83398 5.5 12.501 5.5h39c12.667 0 19 -6.66699 19 -20v-38
c0 -5.33301 -1.83301 -9.66602 -5.5 -12.999s-8.16699 -5 -13.5 -5h-39z" />
    <glyph glyph-name="Igrave" unicode="&#xcc;" horiz-adv-x="161" 
d="M105 819v-819h-46v819h46zM-12 1010h67l36 -154l-27 -16z" />
    <glyph glyph-name="Iacute" unicode="&#xcd;" horiz-adv-x="161" 
d="M105 819v-819h-46v819h46zM98 840l-26 16l35 154h68z" />
    <glyph glyph-name="Icircumflex" unicode="&#xce;" horiz-adv-x="161" 
d="M105 819v-819h-46v819h46zM90 1012l94 -135l-17 -28l-87 120l-86 -120l-17 28l93 135h20z" />
    <glyph glyph-name="Idieresis" unicode="&#xcf;" horiz-adv-x="161" 
d="M105 819v-819h-46v819h46zM-8 866c-4.66699 0 -8.83398 1.66699 -12.501 5s-5.5 7.66602 -5.5 12.999v38c0 6 1.83301 10.833 5.5 14.5s7.83398 5.5 12.501 5.5h39c12.667 0 19 -6.66699 19 -20v-38c0 -5.33301 -1.83301 -9.66602 -5.5 -12.999s-8.16699 -5 -13.5 -5h-39
zM129 866c-4.66699 0 -8.83398 1.66699 -12.501 5s-5.5 7.66602 -5.5 12.999v38c0 6 1.83301 10.833 5.5 14.5s7.83398 5.5 12.501 5.5h39c12.667 0 19 -6.66699 19 -20v-38c0 -5.33301 -1.83301 -9.66602 -5.5 -12.999s-8.16699 -5 -13.5 -5h-39z" />
    <glyph glyph-name="Eth" unicode="&#xd0;" horiz-adv-x="338" 
d="M54 0v819h129c30.667 0 54.167 -7.33301 70.5 -22s24.5 -33.334 24.5 -56.001v-663c0 -21.333 -7.16699 -39.666 -21.5 -54.999s-38.833 -23 -73.5 -23h-129zM100 773v-726.999h80c15.333 0 27.833 3 37.5 9s14.5 15.333 14.5 28v654
c0 9.33301 -4.33301 17.666 -13 24.999s-21.667 11 -39 11h-80zM22 431.001v45h146v-45h-146z" />
    <glyph glyph-name="Ntilde" unicode="&#xd1;" horiz-adv-x="353" 
d="M102 686v-686h-46v819h76v-2l123 -656l10 -83v86v655h47v-819h-71l-129 686l-10 82v-82zM54 866c0 23.333 6.16797 43.501 18.501 60.501s32.5 25.5 60.5 25.5c13.333 0 24.666 -2.5 33.999 -7.5s17.666 -10.5 24.999 -16.5s14.5 -11.5 21.5 -16.5s15.167 -7.5 24.5 -7.5
c14 0 23.667 5.33301 29 16s8 22.667 8 36h38c0 -24.667 -5.5 -46.167 -16.5 -64.5s-29.833 -27.5 -56.5 -27.5c-14 0 -25.5 2.5 -34.5 7.5s-17.167 10.667 -24.5 17s-14.666 12 -21.999 17s-16 7.5 -26 7.5c-9.33301 0 -16.5 -1.66699 -21.5 -5s-9 -7.33301 -12 -12
s-4.83301 -9.83398 -5.5 -15.501s-1 -10.5 -1 -14.5h-39v0z" />
    <glyph glyph-name="Ograve" unicode="&#xd2;" horiz-adv-x="330" 
d="M138 774c-15.333 0 -27.667 -4.16699 -37 -12.5s-14 -19.833 -14 -34.5v-640c0 -13.333 4.5 -24.333 13.5 -33s21.5 -13 37.5 -13h53c34.667 0 52 15.667 52 47v639c0 31.333 -17.333 47 -52 47h-53zM136.999 -4c-30 0 -53.5029 8.16797 -70.5029 24.501
s-25.5 37.166 -25.5 62.499v653c0 23.333 8.33301 43 25 59s42.334 24 77.001 24h45c30 0 54.333 -7.83301 73 -23.5s28 -36.5 28 -62.5v-650c0 -12 -1.66699 -23.167 -5 -33.5s-8.66602 -19.5 -15.999 -27.5s-17.166 -14.333 -29.499 -19s-27.5 -7 -45.5 -7h-56z
M78.9961 1010h67l36 -154l-27 -16z" />
    <glyph glyph-name="Oacute" unicode="&#xd3;" horiz-adv-x="330" 
d="M138 774c-15.333 0 -27.667 -4.16699 -37 -12.5s-14 -19.833 -14 -34.5v-640c0 -13.333 4.5 -24.333 13.5 -33s21.5 -13 37.5 -13h53c34.667 0 52 15.667 52 47v639c0 31.333 -17.333 47 -52 47h-53zM136.999 -4c-30 0 -53.5029 8.16797 -70.5029 24.501
s-25.5 37.166 -25.5 62.499v653c0 23.333 8.33301 43 25 59s42.334 24 77.001 24h45c30 0 54.333 -7.83301 73 -23.5s28 -36.5 28 -62.5v-650c0 -12 -1.66699 -23.167 -5 -33.5s-8.66602 -19.5 -15.999 -27.5s-17.166 -14.333 -29.499 -19s-27.5 -7 -45.5 -7h-56z
M176.996 840.001l-26 16l35 154h68z" />
    <glyph glyph-name="Ocircumflex" unicode="&#xd4;" horiz-adv-x="330" 
d="M138 774c-15.333 0 -27.667 -4.16699 -37 -12.5s-14 -19.833 -14 -34.5v-640c0 -13.333 4.5 -24.333 13.5 -33s21.5 -13 37.5 -13h53c34.667 0 52 15.667 52 47v639c0 31.333 -17.333 47 -52 47h-53zM136.999 -4c-30 0 -53.5029 8.16797 -70.5029 24.501
s-25.5 37.166 -25.5 62.499v653c0 23.333 8.33301 43 25 59s42.334 24 77.001 24h45c30 0 54.333 -7.83301 73 -23.5s28 -36.5 28 -62.5v-650c0 -12 -1.66699 -23.167 -5 -33.5s-8.66602 -19.5 -15.999 -27.5s-17.166 -14.333 -29.499 -19s-27.5 -7 -45.5 -7h-56z
M170.996 1012l94 -135l-17 -28l-87 120l-86 -120l-17 28l93 135h20z" />
    <glyph glyph-name="Otilde" unicode="&#xd5;" horiz-adv-x="330" 
d="M138 774c-15.333 0 -27.667 -4.16699 -37 -12.5s-14 -19.833 -14 -34.5v-640c0 -13.333 4.5 -24.333 13.5 -33s21.5 -13 37.5 -13h53c34.667 0 52 15.667 52 47v639c0 31.333 -17.333 47 -52 47h-53zM136.999 -4c-30 0 -53.5029 8.16797 -70.5029 24.501
s-25.5 37.166 -25.5 62.499v653c0 23.333 8.33301 43 25 59s42.334 24 77.001 24h45c30 0 54.333 -7.83301 73 -23.5s28 -36.5 28 -62.5v-650c0 -12 -1.66699 -23.167 -5 -33.5s-8.66602 -19.5 -15.999 -27.5s-17.166 -14.333 -29.499 -19s-27.5 -7 -45.5 -7h-56z
M37.9961 866.001c0 23.333 6.16797 43.501 18.501 60.501s32.5 25.5 60.5 25.5c13.333 0 24.666 -2.5 33.999 -7.5s17.666 -10.5 24.999 -16.5s14.5 -11.5 21.5 -16.5s15.167 -7.5 24.5 -7.5c14 0 23.667 5.33301 29 16s8 22.667 8 36h38
c0 -24.667 -5.5 -46.167 -16.5 -64.5s-29.833 -27.5 -56.5 -27.5c-14 0 -25.5 2.5 -34.5 7.5s-17.167 10.667 -24.5 17s-14.666 12 -21.999 17s-16 7.5 -26 7.5c-9.33301 0 -16.5 -1.66699 -21.5 -5s-9 -7.33301 -12 -12s-4.83301 -9.83398 -5.5 -15.501s-1 -10.5 -1 -14.5
h-39v0z" />
    <glyph glyph-name="Odieresis" unicode="&#xd6;" horiz-adv-x="330" 
d="M138 774c-15.333 0 -27.667 -4.16699 -37 -12.5s-14 -19.833 -14 -34.5v-640c0 -13.333 4.5 -24.333 13.5 -33s21.5 -13 37.5 -13h53c34.667 0 52 15.667 52 47v639c0 31.333 -17.333 47 -52 47h-53zM136.999 -4c-30 0 -53.5029 8.16797 -70.5029 24.501
s-25.5 37.166 -25.5 62.499v653c0 23.333 8.33301 43 25 59s42.334 24 77.001 24h45c30 0 54.333 -7.83301 73 -23.5s28 -36.5 28 -62.5v-650c0 -12 -1.66699 -23.167 -5 -33.5s-8.66602 -19.5 -15.999 -27.5s-17.166 -14.333 -29.499 -19s-27.5 -7 -45.5 -7h-56z
M75.9961 866.001c-4.66699 0 -8.83398 1.66699 -12.501 5s-5.5 7.66602 -5.5 12.999v38c0 6 1.83301 10.833 5.5 14.5s7.83398 5.5 12.501 5.5h39c12.667 0 19 -6.66699 19 -20v-38c0 -5.33301 -1.83301 -9.66602 -5.5 -12.999s-8.16699 -5 -13.5 -5h-39zM212.996 866.001
c-4.66699 0 -8.83398 1.66699 -12.501 5s-5.5 7.66602 -5.5 12.999v38c0 6 1.83301 10.833 5.5 14.5s7.83398 5.5 12.501 5.5h39c12.667 0 19 -6.66699 19 -20v-38c0 -5.33301 -1.83301 -9.66602 -5.5 -12.999s-8.16699 -5 -13.5 -5h-39z" />
    <glyph glyph-name="multiply" unicode="&#xd7;" horiz-adv-x="246" 
d="M92 308l-36 36l31 32l37 -36l35 35l32 -31l-36 -36l36 -36l-32 -30l-35 34l-37 -36l-31 32z" />
    <glyph glyph-name="Oslash" unicode="&#xd8;" horiz-adv-x="375" 
d="M92 20c-16.667 16.667 -25.0049 37.666 -25.0049 62.999v653c0 23.333 8.33301 43 25 59s42.334 24 77.001 24h45c4.66699 0 8.83398 -0.166992 12.501 -0.5s7.83398 -0.833008 12.501 -1.5l7 35h46l-10 -53c10 -8 18 -17.667 24 -29s9 -23.666 9 -36.999v-650
c0 -12 -1.66699 -23.167 -5 -33.5s-8.66602 -19.5 -15.999 -27.5s-17.166 -14.333 -29.499 -19s-27.5 -7 -45.5 -7h-56c-12 0 -21.667 1.33301 -29 4l-6 -36h-46zM268.995 726.999l-127 -683c6 -2 13.333 -3 22 -3h52c35.333 0 53 15.667 53 47v639zM163.995 773.999
c-15.333 0 -27.666 -4.16699 -36.999 -12.5s-14 -19.833 -14 -34.5v-596l117 642c-1.33301 0 -3.33301 0.166992 -6 0.5s-5.33398 0.5 -8.00098 0.5h-52z" />
    <glyph glyph-name="Ugrave" unicode="&#xd9;" horiz-adv-x="332" 
d="M145 -4c-33.333 0 -59 7.83008 -77 23.4971s-27 37.834 -27 66.501v733h46v-733c0 -13.333 4.83301 -24.166 14.5 -32.499s22.5 -12.5 38.5 -12.5h52c17.333 0 30.333 4 39 12s13 18.333 13 31v735h47v-736c0 -23.333 -7.83301 -43.666 -23.5 -60.999
s-42.167 -26 -79.5 -26h-43zM84 1010h67l36 -154l-27 -16z" />
    <glyph glyph-name="Uacute" unicode="&#xda;" horiz-adv-x="332" 
d="M145 -4c-33.333 0 -59 7.83008 -77 23.4971s-27 37.834 -27 66.501v733h46v-733c0 -13.333 4.83301 -24.166 14.5 -32.499s22.5 -12.5 38.5 -12.5h52c17.333 0 30.333 4 39 12s13 18.333 13 31v735h47v-736c0 -23.333 -7.83301 -43.666 -23.5 -60.999
s-42.167 -26 -79.5 -26h-43zM167 839.997l-26 16l35 154h68z" />
    <glyph glyph-name="Ucircumflex" unicode="&#xdb;" horiz-adv-x="332" 
d="M145 -4c-33.333 0 -59 7.83008 -77 23.4971s-27 37.834 -27 66.501v733h46v-733c0 -13.333 4.83301 -24.166 14.5 -32.499s22.5 -12.5 38.5 -12.5h52c17.333 0 30.333 4 39 12s13 18.333 13 31v735h47v-736c0 -23.333 -7.83301 -43.666 -23.5 -60.999
s-42.167 -26 -79.5 -26h-43zM175 1012l94 -135l-17 -28l-87 120l-86 -120l-17 28l93 135h20z" />
    <glyph glyph-name="Udieresis" unicode="&#xdc;" horiz-adv-x="332" 
d="M145 -4c-33.333 0 -59 7.83008 -77 23.4971s-27 37.834 -27 66.501v733h46v-733c0 -13.333 4.83301 -24.166 14.5 -32.499s22.5 -12.5 38.5 -12.5h52c17.333 0 30.333 4 39 12s13 18.333 13 31v735h47v-736c0 -23.333 -7.83301 -43.666 -23.5 -60.999
s-42.167 -26 -79.5 -26h-43zM77 865.997c-4.66699 0 -8.83398 1.66699 -12.501 5s-5.5 7.66602 -5.5 12.999v38c0 6 1.83301 10.833 5.5 14.5s7.83398 5.5 12.501 5.5h39c12.667 0 19 -6.66699 19 -20v-38c0 -5.33301 -1.83301 -9.66602 -5.5 -12.999s-8.16699 -5 -13.5 -5
h-39zM214 865.997c-4.66699 0 -8.83398 1.66699 -12.501 5s-5.5 7.66602 -5.5 12.999v38c0 6 1.83301 10.833 5.5 14.5s7.83398 5.5 12.501 5.5h39c12.667 0 19 -6.66699 19 -20v-38c0 -5.33301 -1.83301 -9.66602 -5.5 -12.999s-8.16699 -5 -13.5 -5h-39z" />
    <glyph glyph-name="Yacute" unicode="&#xdd;" horiz-adv-x="312" 
d="M178 351v-351h-45v351l-123 468h54l86 -343l6 -47l7 47l85 343h54zM165 840l-26 16l35 154h68z" />
    <glyph glyph-name="Thorn" unicode="&#xde;" horiz-adv-x="288" 
d="M95 818l-0.000976562 -262.999h80c23.333 0 43.5 -8.33301 60.5 -25s25.5 -40.334 25.5 -71.001v-37c0 -27.333 -7.16699 -50 -21.5 -68s-36.166 -27 -65.499 -27h-79v-327h-46v818h46zM94.999 509.001l0.00195312 -137h78c13.333 0 23.666 5 30.999 15s11 22 11 36v37
c0 13.333 -3.83301 24.833 -11.5 34.5s-17.834 14.5 -30.501 14.5h-78z" />
    <glyph glyph-name="germandbls" unicode="&#xdf;" horiz-adv-x="338" 
d="M189 -33c17.333 0 30.502 3.66602 39.502 10.999s13.5 16.666 13.5 27.999v422c0 32 -17.667 48 -53 48h-94v-476h-46v819h142c30 0 53.667 -6.66699 71 -20s26 -32.666 26 -57.999v-178c0 -18.667 -3.33301 -33 -10 -43s-15.334 -17.333 -26.001 -22
c11.333 -5.33301 20.166 -13.5 26.499 -24.5s9.5 -25.167 9.5 -42.5v-430c0 -21.333 -7.33301 -39.666 -22 -54.999s-39.667 -23 -75 -23zM95.002 773.999v-253h94c35.333 0 53 16.333 53 49v163c0 12.667 -4 22.667 -12 30s-21.667 11 -41 11h-94z" />
    <glyph glyph-name="agrave" unicode="&#xe0;" horiz-adv-x="352" 
d="M153 384c-14 0 -26 -2.83301 -36 -8.5s-15 -16.167 -15 -31.5v-257c0 -27.333 16.667 -41 50 -41h55c14.667 0 26.834 3 36.501 9s14.5 17 14.5 33v256c0 13.333 -4.83301 23.333 -14.5 30s-21.834 10 -36.501 10h-54zM56 349c0 21.333 7.49805 39.999 22.498 55.999
s36.833 24 65.5 24h64c10.667 0 20.334 -1.66699 29.001 -5s15.667 -7.66602 21 -12.999v185c0 12.667 -4.16699 23.167 -12.5 31.5s-23.166 12.5 -44.499 12.5h-48c-14.667 0 -26.834 -4.16699 -36.501 -12.5s-14.5 -20.833 -14.5 -37.5v-114h-46v131
c0 20.667 8.33301 39 25 55s40.334 24 71.001 24h56c30 0 53.5 -7.83301 70.5 -23.5s25.5 -34.167 25.5 -55.5v-607h-46v18c-3.33301 -4 -9.83301 -8 -19.5 -12s-21.167 -6 -34.5 -6h-53c-30 0 -53.333 7.5 -70 22.5s-25 34.833 -25 59.5v267zM85.998 876.999h67l36 -154
l-27 -16z" />
    <glyph glyph-name="aacute" unicode="&#xe1;" horiz-adv-x="352" 
d="M153 384c-14 0 -26 -2.83301 -36 -8.5s-15 -16.167 -15 -31.5v-257c0 -27.333 16.667 -41 50 -41h55c14.667 0 26.834 3 36.501 9s14.5 17 14.5 33v256c0 13.333 -4.83301 23.333 -14.5 30s-21.834 10 -36.501 10h-54zM56 349c0 21.333 7.49805 39.999 22.498 55.999
s36.833 24 65.5 24h64c10.667 0 20.334 -1.66699 29.001 -5s15.667 -7.66602 21 -12.999v185c0 12.667 -4.16699 23.167 -12.5 31.5s-23.166 12.5 -44.499 12.5h-48c-14.667 0 -26.834 -4.16699 -36.501 -12.5s-14.5 -20.833 -14.5 -37.5v-114h-46v131
c0 20.667 8.33301 39 25 55s40.334 24 71.001 24h56c30 0 53.5 -7.83301 70.5 -23.5s25.5 -34.167 25.5 -55.5v-607h-46v18c-3.33301 -4 -9.83301 -8 -19.5 -12s-21.167 -6 -34.5 -6h-53c-30 0 -53.333 7.5 -70 22.5s-25 34.833 -25 59.5v267zM197.998 706.999l-26 16
l35 154h68z" />
    <glyph glyph-name="acircumflex" unicode="&#xe2;" horiz-adv-x="352" 
d="M153 384c-14 0 -26 -2.83301 -36 -8.5s-15 -16.167 -15 -31.5v-257c0 -27.333 16.667 -41 50 -41h55c14.667 0 26.834 3 36.501 9s14.5 17 14.5 33v256c0 13.333 -4.83301 23.333 -14.5 30s-21.834 10 -36.501 10h-54zM56 349c0 21.333 7.49805 39.999 22.498 55.999
s36.833 24 65.5 24h64c10.667 0 20.334 -1.66699 29.001 -5s15.667 -7.66602 21 -12.999v185c0 12.667 -4.16699 23.167 -12.5 31.5s-23.166 12.5 -44.499 12.5h-48c-14.667 0 -26.834 -4.16699 -36.501 -12.5s-14.5 -20.833 -14.5 -37.5v-114h-46v131
c0 20.667 8.33301 39 25 55s40.334 24 71.001 24h56c30 0 53.5 -7.83301 70.5 -23.5s25.5 -34.167 25.5 -55.5v-607h-46v18c-3.33301 -4 -9.83301 -8 -19.5 -12s-21.167 -6 -34.5 -6h-53c-30 0 -53.333 7.5 -70 22.5s-25 34.833 -25 59.5v267zM187.998 878.999l94 -135
l-17 -28l-87 120l-86 -120l-17 28l93 135h20z" />
    <glyph glyph-name="atilde" unicode="&#xe3;" horiz-adv-x="352" 
d="M153 384c-14 0 -26 -2.83301 -36 -8.5s-15 -16.167 -15 -31.5v-257c0 -27.333 16.667 -41 50 -41h55c14.667 0 26.834 3 36.501 9s14.5 17 14.5 33v256c0 13.333 -4.83301 23.333 -14.5 30s-21.834 10 -36.501 10h-54zM56 349c0 21.333 7.49805 39.999 22.498 55.999
s36.833 24 65.5 24h64c10.667 0 20.334 -1.66699 29.001 -5s15.667 -7.66602 21 -12.999v185c0 12.667 -4.16699 23.167 -12.5 31.5s-23.166 12.5 -44.499 12.5h-48c-14.667 0 -26.834 -4.16699 -36.501 -12.5s-14.5 -20.833 -14.5 -37.5v-114h-46v131
c0 20.667 8.33301 39 25 55s40.334 24 71.001 24h56c30 0 53.5 -7.83301 70.5 -23.5s25.5 -34.167 25.5 -55.5v-607h-46v18c-3.33301 -4 -9.83301 -8 -19.5 -12s-21.167 -6 -34.5 -6h-53c-30 0 -53.333 7.5 -70 22.5s-25 34.833 -25 59.5v267zM53.998 732.999
c0 23.333 6.16797 43.501 18.501 60.501s32.5 25.5 60.5 25.5c13.333 0 24.666 -2.5 33.999 -7.5s17.666 -10.5 24.999 -16.5s14.5 -11.5 21.5 -16.5s15.167 -7.5 24.5 -7.5c14 0 23.667 5.33301 29 16s8 22.667 8 36h38c0 -24.667 -5.5 -46.167 -16.5 -64.5
s-29.833 -27.5 -56.5 -27.5c-14 0 -25.5 2.5 -34.5 7.5s-17.167 10.667 -24.5 17s-14.666 12 -21.999 17s-16 7.5 -26 7.5c-9.33301 0 -16.5 -1.66699 -21.5 -5s-9 -7.33301 -12 -12s-4.83301 -9.83398 -5.5 -15.501s-1 -10.5 -1 -14.5h-39v0z" />
    <glyph glyph-name="adieresis" unicode="&#xe4;" horiz-adv-x="352" 
d="M153 384c-14 0 -26 -2.83301 -36 -8.5s-15 -16.167 -15 -31.5v-257c0 -27.333 16.667 -41 50 -41h55c14.667 0 26.834 3 36.501 9s14.5 17 14.5 33v256c0 13.333 -4.83301 23.333 -14.5 30s-21.834 10 -36.501 10h-54zM56 349c0 21.333 7.49805 39.999 22.498 55.999
s36.833 24 65.5 24h64c10.667 0 20.334 -1.66699 29.001 -5s15.667 -7.66602 21 -12.999v185c0 12.667 -4.16699 23.167 -12.5 31.5s-23.166 12.5 -44.499 12.5h-48c-14.667 0 -26.834 -4.16699 -36.501 -12.5s-14.5 -20.833 -14.5 -37.5v-114h-46v131
c0 20.667 8.33301 39 25 55s40.334 24 71.001 24h56c30 0 53.5 -7.83301 70.5 -23.5s25.5 -34.167 25.5 -55.5v-607h-46v18c-3.33301 -4 -9.83301 -8 -19.5 -12s-21.167 -6 -34.5 -6h-53c-30 0 -53.333 7.5 -70 22.5s-25 34.833 -25 59.5v267zM86.998 732.999
c-4.66699 0 -8.83398 1.66699 -12.501 5s-5.5 7.66602 -5.5 12.999v38c0 6 1.83301 10.833 5.5 14.5s7.83398 5.5 12.501 5.5h39c12.667 0 19 -6.66699 19 -20v-38c0 -5.33301 -1.83301 -9.66602 -5.5 -12.999s-8.16699 -5 -13.5 -5h-39zM223.998 732.999
c-4.66699 0 -8.83398 1.66699 -12.501 5s-5.5 7.66602 -5.5 12.999v38c0 6 1.83301 10.833 5.5 14.5s7.83398 5.5 12.501 5.5h39c12.667 0 19 -6.66699 19 -20v-38c0 -5.33301 -1.83301 -9.66602 -5.5 -12.999s-8.16699 -5 -13.5 -5h-39z" />
    <glyph glyph-name="aring" unicode="&#xe5;" horiz-adv-x="352" 
d="M153 384c-14 0 -26 -2.83301 -36 -8.5s-15 -16.167 -15 -31.5v-257c0 -27.333 16.667 -41 50 -41h55c14.667 0 26.834 3 36.501 9s14.5 17 14.5 33v256c0 13.333 -4.83301 23.333 -14.5 30s-21.834 10 -36.501 10h-54zM56 349c0 21.333 7.49805 39.999 22.498 55.999
s36.833 24 65.5 24h64c10.667 0 20.334 -1.66699 29.001 -5s15.667 -7.66602 21 -12.999v185c0 12.667 -4.16699 23.167 -12.5 31.5s-23.166 12.5 -44.499 12.5h-48c-14.667 0 -26.834 -4.16699 -36.501 -12.5s-14.5 -20.833 -14.5 -37.5v-114h-46v131
c0 20.667 8.33301 39 25 55s40.334 24 71.001 24h56c30 0 53.5 -7.83301 70.5 -23.5s25.5 -34.167 25.5 -55.5v-607h-46v18c-3.33301 -4 -9.83301 -8 -19.5 -12s-21.167 -6 -34.5 -6h-53c-30 0 -53.333 7.5 -70 22.5s-25 34.833 -25 59.5v267zM94.998 739.999
c0 24.667 8.33301 45.667 25 63s37.334 26 62.001 26c12 0 23.333 -2.33301 34 -7s20 -11 28 -19s14.333 -17.5 19 -28.5s7 -22.5 7 -34.5c0 -24 -8.66699 -44.5 -26 -61.5s-38 -25.5 -62 -25.5c-24.667 0 -45.334 8.5 -62.001 25.5s-25 37.5 -25 61.5zM127.998 739.999
c0 -14.667 5.16699 -27.167 15.5 -37.5s23.166 -15.5 38.499 -15.5c14.667 0 27.167 5.16699 37.5 15.5s15.5 22.833 15.5 37.5c0 15.333 -5.16699 28.166 -15.5 38.499s-22.833 15.5 -37.5 15.5c-15.333 0 -28.166 -5.16699 -38.499 -15.5s-15.5 -23.166 -15.5 -38.499z
" />
    <glyph glyph-name="ae" unicode="&#xe6;" horiz-adv-x="682" 
d="M305 81c0.666992 -13.333 6.16602 -23.5 16.499 -30.5s23.5 -10.5 39.5 -10.5h27c36 0 54 15.667 54 47v118h44v-118c0 -12 -1.5 -23.333 -4.5 -34s-8.16699 -20.334 -15.5 -29.001s-17.666 -15.5 -30.999 -20.5s-30 -7.5 -50 -7.5h-21c-24 0 -43.667 4.33301 -59 13v-9
h-46v18c-4 -4 -10.833 -8 -20.5 -12s-20.834 -6 -33.501 -6h-54c-30 0 -53.333 7.5 -70 22.5s-25 34.833 -25 59.5v267c0 21.333 7.5 40 22.5 56s37.167 24 66.5 24h64c10 0 19.5 -1.66699 28.5 -5s16.167 -7.66602 21.5 -12.999v185v6
c-1.33301 10.667 -6.33301 19.667 -15 27s-23 11 -43 11h-47c-15.333 0 -27.833 -4.16699 -37.5 -12.5s-14.5 -20.833 -14.5 -37.5v-114h-46v131c0 20.667 8.33301 39 25 55s40.334 24 71.001 24h57c16 0 30 -2.5 42 -7.5s22.333 -11.833 31 -20.5
c18.667 18.667 43 28 73 28h37c28 0 50.667 -7.5 68 -22.5s26 -37.5 26 -67.5v-257h-181v-258zM153.999 384c-14.667 0 -27 -2.83301 -37 -8.5s-15 -16.167 -15 -31.5v-257c0 -27.333 16.667 -41 50 -41h55c15.333 0 27.833 3 37.5 9s14.5 17 14.5 33v256
c0 13.333 -4.83301 23.333 -14.5 30s-22.167 10 -37.5 10h-53zM355.999 643c-15.333 0 -27.667 -4.16699 -37 -12.5s-14 -20.833 -14 -37.5v-209h137v209c0 14.667 -4.66699 26.667 -14 36s-22 14 -38 14h-34z" />
    <glyph glyph-name="ccedilla" unicode="&#xe7;" horiz-adv-x="296" 
d="M174 686c28 0 50.8301 -7.50098 68.4971 -22.501s26.5 -33.833 26.5 -56.5v-131h-45v114c0 15.333 -3.66699 27.5 -11 36.5s-20.666 13.5 -39.999 13.5h-35c-16 0 -28.5 -4.16699 -37.5 -12.5s-13.5 -20.833 -13.5 -37.5v-507c0 -11.333 4.33301 -21 13 -29
s21.334 -12 38.001 -12h35c34 0 51 14.667 51 44v119h45v-131c0 -9.33301 -2 -18.666 -6 -27.999s-9.83301 -17.666 -17.5 -24.999s-17.5 -13.333 -29.5 -18s-26 -7 -42 -7h-37c-27.333 0 -50.166 7 -68.499 21s-27.5 35.667 -27.5 65v517c0 25.333 8 46.166 24 62.499
s40 24.5 72 24.5h37zM143.997 25.999h44l-43 -125h-45z" />
    <glyph glyph-name="egrave" unicode="&#xe8;" horiz-adv-x="305" 
d="M87 84c0 -13.333 5.16699 -23.999 15.5 -31.999s23.833 -12 40.5 -12h27c36 0 54 15.667 54 47v118h45v-118c0 -12 -1.5 -23.333 -4.5 -34s-8.33301 -20.334 -16 -29.001s-18 -15.5 -31 -20.5s-29.5 -7.5 -49.5 -7.5h-22c-30 0 -55 7.83301 -75 23.5s-30 38.167 -30 67.5
v508c0 29.333 9 51.833 27 67.5s41 23.5 69 23.5h37c28 0 50.833 -7.5 68.5 -22.5s26.5 -37.5 26.5 -67.5v-257h-182v-255zM138 643.001c-15.333 0 -27.667 -4.16699 -37 -12.5s-14 -20.833 -14 -37.5v-209h137v209c0 14.667 -4.5 26.667 -13.5 36s-21.5 14 -37.5 14h-35z
M97.999 877.001h67l36 -154l-27 -16z" />
    <glyph glyph-name="eacute" unicode="&#xe9;" horiz-adv-x="305" 
d="M87 84c0 -13.333 5.16699 -23.999 15.5 -31.999s23.833 -12 40.5 -12h27c36 0 54 15.667 54 47v118h45v-118c0 -12 -1.5 -23.333 -4.5 -34s-8.33301 -20.334 -16 -29.001s-18 -15.5 -31 -20.5s-29.5 -7.5 -49.5 -7.5h-22c-30 0 -55 7.83301 -75 23.5s-30 38.167 -30 67.5
v508c0 29.333 9 51.833 27 67.5s41 23.5 69 23.5h37c28 0 50.833 -7.5 68.5 -22.5s26.5 -37.5 26.5 -67.5v-257h-182v-255zM138 643.001c-15.333 0 -27.667 -4.16699 -37 -12.5s-14 -20.833 -14 -37.5v-209h137v209c0 14.667 -4.5 26.667 -13.5 36s-21.5 14 -37.5 14h-35z
M157.999 707.001l-26 16l35 154h68z" />
    <glyph glyph-name="ecircumflex" unicode="&#xea;" horiz-adv-x="305" 
d="M87 84c0 -13.333 5.16699 -23.999 15.5 -31.999s23.833 -12 40.5 -12h27c36 0 54 15.667 54 47v118h45v-118c0 -12 -1.5 -23.333 -4.5 -34s-8.33301 -20.334 -16 -29.001s-18 -15.5 -31 -20.5s-29.5 -7.5 -49.5 -7.5h-22c-30 0 -55 7.83301 -75 23.5s-30 38.167 -30 67.5
v508c0 29.333 9 51.833 27 67.5s41 23.5 69 23.5h37c28 0 50.833 -7.5 68.5 -22.5s26.5 -37.5 26.5 -67.5v-257h-182v-255zM138 643.001c-15.333 0 -27.667 -4.16699 -37 -12.5s-14 -20.833 -14 -37.5v-209h137v209c0 14.667 -4.5 26.667 -13.5 36s-21.5 14 -37.5 14h-35z
M159.999 879.001l94 -135l-17 -28l-87 120l-86 -120l-17 28l93 135h20z" />
    <glyph glyph-name="edieresis" unicode="&#xeb;" horiz-adv-x="305" 
d="M87 84c0 -13.333 5.16699 -23.999 15.5 -31.999s23.833 -12 40.5 -12h27c36 0 54 15.667 54 47v118h45v-118c0 -12 -1.5 -23.333 -4.5 -34s-8.33301 -20.334 -16 -29.001s-18 -15.5 -31 -20.5s-29.5 -7.5 -49.5 -7.5h-22c-30 0 -55 7.83301 -75 23.5s-30 38.167 -30 67.5
v508c0 29.333 9 51.833 27 67.5s41 23.5 69 23.5h37c28 0 50.833 -7.5 68.5 -22.5s26.5 -37.5 26.5 -67.5v-257h-182v-255zM138 643.001c-15.333 0 -27.667 -4.16699 -37 -12.5s-14 -20.833 -14 -37.5v-209h137v209c0 14.667 -4.5 26.667 -13.5 36s-21.5 14 -37.5 14h-35z
M60.999 733.001c-4.66699 0 -8.83398 1.66699 -12.501 5s-5.5 7.66602 -5.5 12.999v38c0 6 1.83301 10.833 5.5 14.5s7.83398 5.5 12.501 5.5h39c12.667 0 19 -6.66699 19 -20v-38c0 -5.33301 -1.83301 -9.66602 -5.5 -12.999s-8.16699 -5 -13.5 -5h-39zM197.999 733.001
c-4.66699 0 -8.83398 1.66699 -12.501 5s-5.5 7.66602 -5.5 12.999v38c0 6 1.83301 10.833 5.5 14.5s7.83398 5.5 12.501 5.5h39c12.667 0 19 -6.66699 19 -20v-38c0 -5.33301 -1.83301 -9.66602 -5.5 -12.999s-8.16699 -5 -13.5 -5h-39z" />
    <glyph glyph-name="igrave" unicode="&#xec;" horiz-adv-x="161" 
d="M104 686v-686h-45v686h45zM-11 877h67l36 -154l-27 -16z" />
    <glyph glyph-name="iacute" unicode="&#xed;" horiz-adv-x="161" 
d="M104 686v-686h-45v686h45zM96 707l-26 16l35 154h68z" />
    <glyph glyph-name="icircumflex" unicode="&#xee;" horiz-adv-x="161" 
d="M104 686v-686h-45v686h45zM90 879l94 -135l-17 -28l-87 120l-86 -120l-17 28l93 135h20z" />
    <glyph glyph-name="idieresis" unicode="&#xef;" horiz-adv-x="161" 
d="M104 686v-686h-45v686h45zM-8 733c-4.66699 0 -8.83398 1.66699 -12.501 5s-5.5 7.66602 -5.5 12.999v38c0 6 1.83301 10.833 5.5 14.5s7.83398 5.5 12.501 5.5h39c12.667 0 19 -6.66699 19 -20v-38c0 -5.33301 -1.83301 -9.66602 -5.5 -12.999s-8.16699 -5 -13.5 -5h-39
zM129 733c-4.66699 0 -8.83398 1.66699 -12.501 5s-5.5 7.66602 -5.5 12.999v38c0 6 1.83301 10.833 5.5 14.5s7.83398 5.5 12.501 5.5h39c12.667 0 19 -6.66699 19 -20v-38c0 -5.33301 -1.83301 -9.66602 -5.5 -12.999s-8.16699 -5 -13.5 -5h-39z" />
    <glyph glyph-name="eth" unicode="&#xf0;" horiz-adv-x="338" 
d="M204 623l53.002 30.998v79c0 12.667 -3.33301 22.5 -10 29.5s-20.667 10.5 -42 10.5h-13v46h15c36 0 61 -7.16699 75 -21.5s21 -33.166 21 -56.499v-61l53 30v-46l-53 -30v-556c0 -23.333 -9 -42.166 -27 -56.499s-41 -21.5 -69 -21.5h-60
c-28 0 -50.333 7.16699 -67 21.5s-25 32.833 -25 55.5v321c0 22.667 8 42.167 24 58.5s40 24.5 72 24.5h56c13.333 0 24.166 -2 32.499 -6s14.166 -8 17.499 -12v145l-53 -31v46zM154.002 434.998c-15.333 0 -28 -3.16797 -38 -9.50098s-15 -15.166 -15 -26.499v-315
c0 -12.667 5 -22.167 15 -28.5s22.667 -9.5 38 -9.5h47c20.667 0 35.167 3.83301 43.5 11.5s12.5 17.167 12.5 28.5v311c0 25.333 -17.333 38 -52 38h-51z" />
    <glyph glyph-name="ntilde" unicode="&#xf1;" horiz-adv-x="340" 
d="M253 595c0 13.333 -5.16504 24.167 -15.498 32.5s-24.166 12.5 -41.499 12.5h-46c-15.333 0 -27.5 -3.5 -36.5 -10.5s-13.5 -17.167 -13.5 -30.5v-599h-46v686h46v-19c4.66699 4 11 8.16699 19 12.5s17.333 6.5 28 6.5h51c13.333 0 26.166 -2 38.499 -6
s23.166 -10 32.499 -18s16.666 -17.5 21.999 -28.5s8 -23.5 8 -37.5v-596h-46v595v0zM50.002 733.001c0 23.333 6.16797 43.501 18.501 60.501s32.5 25.5 60.5 25.5c13.333 0 24.666 -2.5 33.999 -7.5s17.666 -10.5 24.999 -16.5s14.5 -11.5 21.5 -16.5
s15.167 -7.5 24.5 -7.5c14 0 23.667 5.33301 29 16s8 22.667 8 36h38c0 -24.667 -5.5 -46.167 -16.5 -64.5s-29.833 -27.5 -56.5 -27.5c-14 0 -25.5 2.5 -34.5 7.5s-17.167 10.667 -24.5 17s-14.666 12 -21.999 17s-16 7.5 -26 7.5c-9.33301 0 -16.5 -1.66699 -21.5 -5
s-9 -7.33301 -12 -12s-4.83301 -9.83398 -5.5 -15.501s-1 -10.5 -1 -14.5h-39v0z" />
    <glyph glyph-name="ograve" unicode="&#xf2;" 
d="M175 42c34.667 0 52 16.001 52 48.001v508c0 13.333 -5 23.666 -15 30.999s-22.333 11 -37 11h-37c-13.333 0 -24.666 -3.83301 -33.999 -11.5s-14 -17.834 -14 -30.501v-508c0 -15.333 4.66699 -27.166 14 -35.499s21.666 -12.5 36.999 -12.5h34zM142 -3.99902
c-29.333 0 -52.999 7.66602 -70.999 22.999s-27 36.333 -27 63v518c0 23.333 8.16699 43.5 24.5 60.5s40.166 25.5 71.499 25.5h37c26.667 0 49 -7.16699 67 -21.5s27 -36.166 27 -65.499v-517c0 -25.333 -7.5 -46 -22.5 -62s-40.167 -24 -75.5 -24h-31zM100.001 877h67
l36 -154l-27 -16z" />
    <glyph glyph-name="oacute" unicode="&#xf3;" 
d="M175 42c34.667 0 52 16.001 52 48.001v508c0 13.333 -5 23.666 -15 30.999s-22.333 11 -37 11h-37c-13.333 0 -24.666 -3.83301 -33.999 -11.5s-14 -17.834 -14 -30.501v-508c0 -15.333 4.66699 -27.166 14 -35.499s21.666 -12.5 36.999 -12.5h34zM142 -3.99902
c-29.333 0 -52.999 7.66602 -70.999 22.999s-27 36.333 -27 63v518c0 23.333 8.16699 43.5 24.5 60.5s40.166 25.5 71.499 25.5h37c26.667 0 49 -7.16699 67 -21.5s27 -36.166 27 -65.499v-517c0 -25.333 -7.5 -46 -22.5 -62s-40.167 -24 -75.5 -24h-31zM163.001 707l-26 16
l35 154h68z" />
    <glyph glyph-name="ocircumflex" unicode="&#xf4;" 
d="M175 42c34.667 0 52 16.001 52 48.001v508c0 13.333 -5 23.666 -15 30.999s-22.333 11 -37 11h-37c-13.333 0 -24.666 -3.83301 -33.999 -11.5s-14 -17.834 -14 -30.501v-508c0 -15.333 4.66699 -27.166 14 -35.499s21.666 -12.5 36.999 -12.5h34zM142 -3.99902
c-29.333 0 -52.999 7.66602 -70.999 22.999s-27 36.333 -27 63v518c0 23.333 8.16699 43.5 24.5 60.5s40.166 25.5 71.499 25.5h37c26.667 0 49 -7.16699 67 -21.5s27 -36.166 27 -65.499v-517c0 -25.333 -7.5 -46 -22.5 -62s-40.167 -24 -75.5 -24h-31zM162.001 879
l94 -135l-17 -28l-87 120l-86 -120l-17 28l93 135h20z" />
    <glyph glyph-name="otilde" unicode="&#xf5;" 
d="M175 42c34.667 0 52 16.001 52 48.001v508c0 13.333 -5 23.666 -15 30.999s-22.333 11 -37 11h-37c-13.333 0 -24.666 -3.83301 -33.999 -11.5s-14 -17.834 -14 -30.501v-508c0 -15.333 4.66699 -27.166 14 -35.499s21.666 -12.5 36.999 -12.5h34zM142 -3.99902
c-29.333 0 -52.999 7.66602 -70.999 22.999s-27 36.333 -27 63v518c0 23.333 8.16699 43.5 24.5 60.5s40.166 25.5 71.499 25.5h37c26.667 0 49 -7.16699 67 -21.5s27 -36.166 27 -65.499v-517c0 -25.333 -7.5 -46 -22.5 -62s-40.167 -24 -75.5 -24h-31zM30.001 733
c0 23.333 6.16797 43.501 18.501 60.501s32.5 25.5 60.5 25.5c13.333 0 24.666 -2.5 33.999 -7.5s17.666 -10.5 24.999 -16.5s14.5 -11.5 21.5 -16.5s15.167 -7.5 24.5 -7.5c14 0 23.667 5.33301 29 16s8 22.667 8 36h38c0 -24.667 -5.5 -46.167 -16.5 -64.5
s-29.833 -27.5 -56.5 -27.5c-14 0 -25.5 2.5 -34.5 7.5s-17.167 10.667 -24.5 17s-14.666 12 -21.999 17s-16 7.5 -26 7.5c-9.33301 0 -16.5 -1.66699 -21.5 -5s-9 -7.33301 -12 -12s-4.83301 -9.83398 -5.5 -15.501s-1 -10.5 -1 -14.5h-39v0z" />
    <glyph glyph-name="odieresis" unicode="&#xf6;" 
d="M175 42c34.667 0 52 16.001 52 48.001v508c0 13.333 -5 23.666 -15 30.999s-22.333 11 -37 11h-37c-13.333 0 -24.666 -3.83301 -33.999 -11.5s-14 -17.834 -14 -30.501v-508c0 -15.333 4.66699 -27.166 14 -35.499s21.666 -12.5 36.999 -12.5h34zM142 -3.99902
c-29.333 0 -52.999 7.66602 -70.999 22.999s-27 36.333 -27 63v518c0 23.333 8.16699 43.5 24.5 60.5s40.166 25.5 71.499 25.5h37c26.667 0 49 -7.16699 67 -21.5s27 -36.166 27 -65.499v-517c0 -25.333 -7.5 -46 -22.5 -62s-40.167 -24 -75.5 -24h-31zM64.001 733
c-4.66699 0 -8.83398 1.66699 -12.501 5s-5.5 7.66602 -5.5 12.999v38c0 6 1.83301 10.833 5.5 14.5s7.83398 5.5 12.501 5.5h39c12.667 0 19 -6.66699 19 -20v-38c0 -5.33301 -1.83301 -9.66602 -5.5 -12.999s-8.16699 -5 -13.5 -5h-39zM201.001 733
c-4.66699 0 -8.83398 1.66699 -12.501 5s-5.5 7.66602 -5.5 12.999v38c0 6 1.83301 10.833 5.5 14.5s7.83398 5.5 12.501 5.5h39c12.667 0 19 -6.66699 19 -20v-38c0 -5.33301 -1.83301 -9.66602 -5.5 -12.999s-8.16699 -5 -13.5 -5h-39z" />
    <glyph glyph-name="divide" unicode="&#xf7;" horiz-adv-x="134" 
d="M46 422c-5.33301 0 -9.83301 1.83301 -13.5 5.5s-5.5 8.16699 -5.5 13.5v41c0 6 1.83301 11 5.5 15s8.16699 6 13.5 6h41c6 0 11 -2 15 -6s6 -9 6 -15v-41c0 -5.33301 -2 -9.83301 -6 -13.5s-9 -5.5 -15 -5.5h-41zM46 97c-5.33301 0 -9.83301 1.83301 -13.5 5.5
s-5.5 8.16699 -5.5 13.5v41c0 6 1.83301 11 5.5 15s8.16699 6 13.5 6h41c6 0 11 -2 15 -6s6 -9 6 -15v-41c0 -5.33301 -2 -9.83301 -6 -13.5s-9 -5.5 -15 -5.5h-41zM-5 331h145v-45h-145v45z" />
    <glyph glyph-name="oslash" unicode="&#xf8;" 
d="M116 0l-5 -31.001h-46l9 51c-20 16 -30 38 -30 66v514c0 23.333 8.16699 43.5 24.5 60.5s40.166 25.5 71.499 25.5h56l5 28h46l-9 -46c10.667 -7.33301 18.834 -16.666 24.501 -27.999s8.5 -25 8.5 -41v-513c0 -25.333 -7.5 -46 -22.5 -62s-40.167 -24 -75.5 -24h-57z
M175 45.999c34.667 0 52 15.667 52 47v509l-102 -556h50zM90 104.999l96.999 535.001h-49c-13.333 0 -24.666 -3.83301 -33.999 -11.5s-14 -17.834 -14 -30.501v-493z" />
    <glyph glyph-name="ugrave" unicode="&#xf9;" horiz-adv-x="340" 
d="M95 90c0 -13.333 4.66602 -24.168 13.999 -32.501s21.666 -12.5 36.999 -12.5h52c19.333 0 32.833 3.5 40.5 10.5s11.5 17.5 11.5 31.5v599h46v-686h-46v17c-3.33301 -3.33301 -9.5 -7.16602 -18.5 -11.499s-20.833 -6.5 -35.5 -6.5h-44
c-13.333 0 -26.166 1.83301 -38.499 5.5s-23.166 9.5 -32.499 17.5s-17 18 -23 30s-9 26.333 -9 43v591h46v-596v0zM117.999 876.998h67l36 -154l-27 -16z" />
    <glyph glyph-name="uacute" unicode="&#xfa;" horiz-adv-x="340" 
d="M95 90c0 -13.333 4.66602 -24.168 13.999 -32.501s21.666 -12.5 36.999 -12.5h52c19.333 0 32.833 3.5 40.5 10.5s11.5 17.5 11.5 31.5v599h46v-686h-46v17c-3.33301 -3.33301 -9.5 -7.16602 -18.5 -11.499s-20.833 -6.5 -35.5 -6.5h-44
c-13.333 0 -26.166 1.83301 -38.499 5.5s-23.166 9.5 -32.499 17.5s-17 18 -23 30s-9 26.333 -9 43v591h46v-596v0zM179.999 706.998l-26 16l35 154h68z" />
    <glyph glyph-name="ucircumflex" unicode="&#xfb;" horiz-adv-x="340" 
d="M95 90c0 -13.333 4.66602 -24.168 13.999 -32.501s21.666 -12.5 36.999 -12.5h52c19.333 0 32.833 3.5 40.5 10.5s11.5 17.5 11.5 31.5v599h46v-686h-46v17c-3.33301 -3.33301 -9.5 -7.16602 -18.5 -11.499s-20.833 -6.5 -35.5 -6.5h-44
c-13.333 0 -26.166 1.83301 -38.499 5.5s-23.166 9.5 -32.499 17.5s-17 18 -23 30s-9 26.333 -9 43v591h46v-596v0zM179.999 878.998l94 -135l-17 -28l-87 120l-86 -120l-17 28l93 135h20z" />
    <glyph glyph-name="udieresis" unicode="&#xfc;" horiz-adv-x="340" 
d="M95 90c0 -13.333 4.66602 -24.168 13.999 -32.501s21.666 -12.5 36.999 -12.5h52c19.333 0 32.833 3.5 40.5 10.5s11.5 17.5 11.5 31.5v599h46v-686h-46v17c-3.33301 -3.33301 -9.5 -7.16602 -18.5 -11.499s-20.833 -6.5 -35.5 -6.5h-44
c-13.333 0 -26.166 1.83301 -38.499 5.5s-23.166 9.5 -32.499 17.5s-17 18 -23 30s-9 26.333 -9 43v591h46v-596v0zM81.999 732.998c-4.66699 0 -8.83398 1.66699 -12.501 5s-5.5 7.66602 -5.5 12.999v38c0 6 1.83301 10.833 5.5 14.5s7.83398 5.5 12.501 5.5h39
c12.667 0 19 -6.66699 19 -20v-38c0 -5.33301 -1.83301 -9.66602 -5.5 -12.999s-8.16699 -5 -13.5 -5h-39zM218.999 732.998c-4.66699 0 -8.83398 1.66699 -12.501 5s-5.5 7.66602 -5.5 12.999v38c0 6 1.83301 10.833 5.5 14.5s7.83398 5.5 12.501 5.5h39
c12.667 0 19 -6.66699 19 -20v-38c0 -5.33301 -1.83301 -9.66602 -5.5 -12.999s-8.16699 -5 -13.5 -5h-39z" />
    <glyph glyph-name="yacute" unicode="&#xfd;" horiz-adv-x="330" 
d="M87 -132l102 0.000976562c19.333 0 32.833 4.16699 40.5 12.5s11.5 20.166 11.5 35.499v147c-6.66699 -4.66699 -13.667 -8.66699 -21 -12s-16.333 -5 -27 -5h-48c-34 0 -59.833 9.16699 -77.5 27.5s-26.5 42.5 -26.5 72.5v540h46v-544c0 -16 5.33301 -28.333 16 -37
s25.667 -13 45 -13h43c18 0 30.833 3.66699 38.5 11s11.5 19.666 11.5 36.999v546h46v-776c0 -25.333 -7.5 -46.166 -22.5 -62.499s-40.5 -24.5 -76.5 -24.5h-101v45zM174 707.001l-26 16l35 154h68z" />
    <glyph glyph-name="thorn" unicode="&#xfe;" horiz-adv-x="296" 
d="M69 0l-46.001 -0.00195312v687h46v-183c4.66699 4 11.167 8.33301 19.5 13s17.5 7 27.5 7h52c18.667 0 34.334 -3 47.001 -9s23 -13.667 31 -23s13.833 -19.666 17.5 -30.999s5.5 -22.333 5.5 -33v-164c0 -12 -1.83301 -24.167 -5.5 -36.5s-9.5 -23.166 -17.5 -32.499
s-18.667 -17 -32 -23s-29.666 -9 -48.999 -9h-43c-9.33301 0 -18.333 1 -27 3s-17.334 6.66699 -26.001 14v-180zM169.999 205.998c15.333 0 28 4.83301 38 14.5s15 21.167 15 34.5v175c0 31.333 -18.333 47 -55 47h-49c-33.333 0 -50 -14 -50 -42v-180
c0 -32.667 16.667 -49 50 -49h51z" />
    <glyph glyph-name="ydieresis" unicode="&#xff;" horiz-adv-x="330" 
d="M87 -132l102 0.000976562c19.333 0 32.833 4.16699 40.5 12.5s11.5 20.166 11.5 35.499v147c-6.66699 -4.66699 -13.667 -8.66699 -21 -12s-16.333 -5 -27 -5h-48c-34 0 -59.833 9.16699 -77.5 27.5s-26.5 42.5 -26.5 72.5v540h46v-544c0 -16 5.33301 -28.333 16 -37
s25.667 -13 45 -13h43c18 0 30.833 3.66699 38.5 11s11.5 19.666 11.5 36.999v546h46v-776c0 -25.333 -7.5 -46.166 -22.5 -62.499s-40.5 -24.5 -76.5 -24.5h-101v45zM72 733.001c-4.66699 0 -8.83398 1.66699 -12.501 5s-5.5 7.66602 -5.5 12.999v38
c0 6 1.83301 10.833 5.5 14.5s7.83398 5.5 12.501 5.5h39c12.667 0 19 -6.66699 19 -20v-38c0 -5.33301 -1.83301 -9.66602 -5.5 -12.999s-8.16699 -5 -13.5 -5h-39zM209 733.001c-4.66699 0 -8.83398 1.66699 -12.501 5s-5.5 7.66602 -5.5 12.999v38
c0 6 1.83301 10.833 5.5 14.5s7.83398 5.5 12.501 5.5h39c12.667 0 19 -6.66699 19 -20v-38c0 -5.33301 -1.83301 -9.66602 -5.5 -12.999s-8.16699 -5 -13.5 -5h-39z" />
    <glyph glyph-name="dotlessi" unicode="&#x131;" horiz-adv-x="161" 
d="M104 686v-686h-45v686h45z" />
    <glyph glyph-name="Lslash" unicode="&#x141;" horiz-adv-x="289" 
d="M49 819l46 0.00195312v-357c8 7.33301 16.833 14.666 26.5 21.999s18.167 14.666 25.5 21.999v-50l-52 -43v-367h147v-46h-193v384l-39 -32v50l39 32v385z" />
    <glyph glyph-name="lslash" unicode="&#x142;" horiz-adv-x="161" 
d="M104 819v-356l43 37v-49l-43 -36v-374h57v-41h-102v385l-46 -38v50l46 37v385h45z" />
    <glyph glyph-name="OE" unicode="&#x152;" horiz-adv-x="449" 
d="M292 521l147 0.000976562v-45h-147v-430h147v-46h-299c-30.667 0 -54.334 8.16699 -71.001 24.5s-25 37.166 -25 62.499v649c0 23.333 8.33301 43 25 59s42.334 24 77.001 24h45h9h239v-46h-147v-252zM141 774.001c-15.333 0 -27.667 -4.16699 -37 -12.5
s-14 -19.833 -14 -34.5v-640c0 -13.333 4.5 -24.333 13.5 -33s21.5 -13 37.5 -13h52c35.333 0 53 15.667 53 47v639c0 31.333 -17.667 47 -53 47h-52z" />
    <glyph glyph-name="oe" unicode="&#x153;" horiz-adv-x="479" 
d="M270 84c0 -13.333 5.16602 -23.9971 15.499 -31.9971s23.833 -12 40.5 -12h27c36 0 54 15.667 54 47v118h45v-118c0 -12 -1.5 -23.333 -4.5 -34s-8.33301 -20.334 -16 -29.001s-18 -15.5 -31 -20.5s-29.5 -7.5 -49.5 -7.5h-22c-16 0 -30.833 2.16699 -44.5 6.5
s-25.167 11.166 -34.5 20.499c-8 -8.66699 -18.5 -15.334 -31.5 -20.001s-29.167 -7 -48.5 -7h-30c-29.333 0 -53.166 7.66699 -71.499 23s-27.5 36.333 -27.5 63v518c0 23.333 8.33301 43.5 25 60.5s40.334 25.5 71.001 25.5h37c15.333 0 29.166 -2.33301 41.499 -7
s22.833 -11.667 31.5 -21c18.667 18.667 43 28 73 28h37c28 0 50.833 -7.5 68.5 -22.5s26.5 -37.5 26.5 -67.5v-257h-182v-255zM172.999 42.0029c18 0 31.001 4.00098 39.001 12.001s12 20 12 36v508c0 13.333 -5 23.666 -15 30.999s-22 11 -36 11h-37
c-13.333 0 -24.833 -3.83301 -34.5 -11.5s-14.5 -17.834 -14.5 -30.501v-508c0 -15.333 4.66699 -27.166 14 -35.499s21.666 -12.5 36.999 -12.5h35zM321 643.004c-15.333 0 -27.667 -4.16699 -37 -12.5s-14 -20.833 -14 -37.5v-209h137v209c0 14.667 -4.5 26.667 -13.5 36
s-21.5 14 -37.5 14h-35z" />
    <glyph glyph-name="Scaron" unicode="&#x160;" horiz-adv-x="301" 
d="M122 -4c-28 0 -51.5 6.83105 -70.5 20.498s-28.5 35.834 -28.5 66.501v165h46v-165c0 -14 4.83301 -24.333 14.5 -31s22.5 -10 38.5 -10h52c16 0 29 4.16699 39 12.5s15 21.166 15 38.499v290c0 14.667 -4.5 26.334 -13.5 35.001s-24.167 13 -45.5 13h-41
c-30 0 -54.833 6.83301 -74.5 20.5s-29.5 35.167 -29.5 64.5v217c0 27.333 9.83301 48.5 29.5 63.5s44.167 22.5 73.5 22.5h46c27.333 0 51 -7.33301 71 -22s30 -36.667 30 -66v-165h-46v160c0 14 -4 25.333 -12 34s-21.667 13 -41 13h-52
c-18.667 0 -32.167 -4.16699 -40.5 -12.5s-12.5 -19.833 -12.5 -34.5v-205c0 -13.333 4.83301 -24.166 14.5 -32.499s24.167 -12.5 43.5 -12.5h36c35.333 0 62.5 -7.16699 81.5 -21.5s28.5 -36.833 28.5 -67.5v-306c0 -24.667 -8.66699 -45 -26 -61s-42.333 -24 -75 -24h-51
zM127 853.998l-93 135l17 28l86 -120l87 120l17 -28l-94 -135h-20z" />
    <glyph glyph-name="scaron" unicode="&#x161;" 
d="M146 -4c-67.333 0 -100.998 30.335 -100.998 91.002v118h46v-115c0 -14.667 4.16699 -26.334 12.5 -35.001s21.166 -13 38.499 -13h33c16 0 29 4.16699 39 12.5s15 20.166 15 35.499v207c0 14 -4.66699 24.5 -14 31.5s-22 10.5 -38 10.5h-34
c-13.333 0 -25.833 1.5 -37.5 4.5s-21.834 8 -30.501 15s-15.667 16.167 -21 27.5s-8 25.333 -8 42v175c0 22.667 7.83301 42.167 23.5 58.5s39.167 24.5 70.5 24.5h38c27.333 0 50.166 -7.5 68.499 -22.5s27.5 -36.167 27.5 -63.5v-124h-45v117c0 32 -17.333 48 -52 48h-34
c-17.333 0 -30.166 -4.33301 -38.499 -13s-12.5 -20.334 -12.5 -35.001v-167c0 -12 4.33301 -22 13 -30s21.334 -12 38.001 -12h35c25.333 0 47.666 -7.16699 66.999 -21.5s29 -37.166 29 -68.499v-204c0 -30 -9.16699 -53.167 -27.5 -69.5s-42.5 -24.5 -72.5 -24.5h-28z
M146.002 721.002l-93 135l17 28l86 -120l87 120l17 -28l-94 -135h-20z" />
    <glyph glyph-name="Ydieresis" unicode="&#x178;" horiz-adv-x="312" 
d="M178 351v-351h-45v351l-123 468h54l86 -343l6 -47l7 47l85 343h54zM67 866c-4.66699 0 -8.83398 1.66699 -12.501 5s-5.5 7.66602 -5.5 12.999v38c0 6 1.83301 10.833 5.5 14.5s7.83398 5.5 12.501 5.5h39c12.667 0 19 -6.66699 19 -20v-38
c0 -5.33301 -1.83301 -9.66602 -5.5 -12.999s-8.16699 -5 -13.5 -5h-39zM204 866c-4.66699 0 -8.83398 1.66699 -12.501 5s-5.5 7.66602 -5.5 12.999v38c0 6 1.83301 10.833 5.5 14.5s7.83398 5.5 12.501 5.5h39c12.667 0 19 -6.66699 19 -20v-38
c0 -5.33301 -1.83301 -9.66602 -5.5 -12.999s-8.16699 -5 -13.5 -5h-39z" />
    <glyph glyph-name="Zcaron" unicode="&#x17d;" horiz-adv-x="219" 
d="M204 46v-46h-194v4l155 769h-139v46h183v-42l-137 -731h132zM115 854l-93 135l17 28l86 -120l87 120l17 -28l-94 -135h-20z" />
    <glyph glyph-name="zcaron" unicode="&#x17e;" horiz-adv-x="218" 
d="M202 46v-46h-192v5l151 635h-135v46h181v-43l-139 -597h134zM115 721l-93 135l17 28l86 -120l87 120l17 -28l-94 -135h-20z" />
    <glyph glyph-name="florin" unicode="&#x192;" horiz-adv-x="195" 
d="M-27 -64h32.999c17.333 0 30.333 4 39 12s13 18.667 13 32v660h-26v46h26v50c0 23.333 8.5 43 25.5 59s40.5 24 70.5 24h34v-45h-33c-17.333 0 -30.166 -4 -38.499 -12s-12.5 -18.333 -12.5 -31v-45h84v-46h-84v-666c0 -23.333 -8.5 -43 -25.5 -59s-40.5 -24 -70.5 -24
h-35v45z" />
    <glyph glyph-name="circumflex" unicode="&#x2c6;" horiz-adv-x="291" 
d="M157 879l94 -135l-17 -28l-87 120l-86 -120l-17 28l93 135h20z" />
    <glyph glyph-name="caron" unicode="&#x2c7;" horiz-adv-x="294" 
d="M137 721l-93 135l17 28l86 -120l87 120l17 -28l-94 -135h-20z" />
    <glyph glyph-name="breve" unicode="&#x2d8;" horiz-adv-x="366" 
d="M280 819c-2 -26 -11.1689 -46.5 -27.502 -61.5s-37.833 -22.5 -64.5 -22.5c-23.333 0 -44.666 7 -63.999 21s-30.333 35 -33 63h37c2 -15.333 8.16699 -27.166 18.5 -35.499s23.833 -12.5 40.5 -12.5c14.667 0 26.834 4.16699 36.501 12.5s16.167 20.166 19.5 35.499h37z
" />
    <glyph glyph-name="dotaccent" unicode="&#x2d9;" horiz-adv-x="197" 
d="M44 780c0 15.333 5.33301 28.333 16 39s23.667 16 39 16s28.333 -5.33301 39 -16s16 -23.667 16 -39s-5.33301 -28.5 -16 -39.5s-23.667 -16.5 -39 -16.5s-28.333 5.5 -39 16.5s-16 24.167 -16 39.5z" />
    <glyph glyph-name="ring" unicode="&#x2da;" horiz-adv-x="262" 
d="M44 801c0 24.667 8.33301 45.667 25 63s37.334 26 62.001 26c12 0 23.333 -2.33301 34 -7s20 -11 28 -19s14.333 -17.5 19 -28.5s7 -22.5 7 -34.5c0 -24 -8.66699 -44.5 -26 -61.5s-38 -25.5 -62 -25.5c-24.667 0 -45.334 8.5 -62.001 25.5s-25 37.5 -25 61.5zM77 801
c0 -14.667 5.16699 -27.167 15.5 -37.5s23.166 -15.5 38.499 -15.5c14.667 0 27.167 5.16699 37.5 15.5s15.5 22.833 15.5 37.5c0 15.333 -5.16699 28.166 -15.5 38.499s-22.833 15.5 -37.5 15.5c-15.333 0 -28.166 -5.16699 -38.499 -15.5s-15.5 -23.166 -15.5 -38.499z
" />
    <glyph glyph-name="ogonek" unicode="&#x2db;" horiz-adv-x="141" 
d="M88 19v-84h36v-41h-82v125h46z" />
    <glyph glyph-name="tilde" unicode="&#x2dc;" horiz-adv-x="347" 
d="M44 733c0 23.333 6.16797 43.501 18.501 60.501s32.5 25.5 60.5 25.5c13.333 0 24.666 -2.5 33.999 -7.5s17.666 -10.5 24.999 -16.5s14.5 -11.5 21.5 -16.5s15.167 -7.5 24.5 -7.5c14 0 23.667 5.33301 29 16s8 22.667 8 36h38c0 -24.667 -5.5 -46.167 -16.5 -64.5
s-29.833 -27.5 -56.5 -27.5c-14 0 -25.5 2.5 -34.5 7.5s-17.167 10.667 -24.5 17s-14.666 12 -21.999 17s-16 7.5 -26 7.5c-9.33301 0 -16.5 -1.66699 -21.5 -5s-9 -7.33301 -12 -12s-4.83301 -9.83398 -5.5 -15.501s-1 -10.5 -1 -14.5h-39v0z" />
    <glyph glyph-name="hungarumlaut" unicode="&#x2dd;" horiz-adv-x="338" 
d="M119 717l-35 22l43 94h71zM216 717l-34 22l42 94h72z" />
    <glyph glyph-name="endash" unicode="&#x2013;" horiz-adv-x="397" 
d="M77 287v45h242v-45h-242z" />
    <glyph glyph-name="emdash" unicode="&#x2014;" horiz-adv-x="643" 
d="M77 286v45h496v-45h-496z" />
    <glyph glyph-name="quoteleft" unicode="&#x2018;" horiz-adv-x="255" 
d="M108 679l-36 22l-13 220h73z" />
    <glyph glyph-name="quoteright" unicode="&#x2019;" horiz-adv-x="255" 
d="M131 921h73l-13 -220l-36 -22z" />
    <glyph glyph-name="quotesinglbase" unicode="&#x201a;" horiz-adv-x="255" 
d="M180 -52l-35 21l-13 220h73z" />
    <glyph glyph-name="quotedblleft" unicode="&#x201c;" horiz-adv-x="387" 
d="M113 679l-36 22l-18 220h73zM242 679l-36 22l-18 220h73z" />
    <glyph glyph-name="quotedblright" unicode="&#x201d;" horiz-adv-x="416" 
d="M260 921h73l-18 -220l-36 -22zM131 921h73l-18 -220l-36 -22z" />
    <glyph glyph-name="quotedblbase" unicode="&#x201e;" horiz-adv-x="416" 
d="M179 -52l-36 21l-12 220h73zM312 -52l-36 21l-12 220h73z" />
    <glyph glyph-name="dagger" unicode="&#x2020;" horiz-adv-x="268" 
d="M257 820v-42h-103v-649h-41v649h-103v42h103v208h41v-208h103z" />
    <glyph glyph-name="daggerdbl" unicode="&#x2021;" horiz-adv-x="268" 
d="M10 566v42h103v169h-103v41h103v175h42v-175h102v-41h-102v-169h102v-42h-102v-475h-42v475h-103z" />
    <glyph glyph-name="bullet" unicode="&#x2022;" horiz-adv-x="332" 
d="M60 576c0 16 3 30.833 9 44.5s14 25.667 24 36s21.833 18.5 35.5 24.5s28.5 9 44.5 9s30.833 -3 44.5 -9s25.667 -14.167 36 -24.5s18.5 -22.333 24.5 -36s9 -28.5 9 -44.5s-3 -30.833 -9 -44.5s-14.167 -25.5 -24.5 -35.5s-22.333 -18 -36 -24s-28.5 -9 -44.5 -9
s-30.833 3 -44.5 9s-25.5 14 -35.5 24s-18 21.833 -24 35.5s-9 28.5 -9 44.5z" />
    <glyph glyph-name="ellipsis" unicode="&#x2026;" horiz-adv-x="546" 
d="M49 -4c-5.33301 0 -9.83301 1.83301 -13.5 5.5s-5.5 8.16699 -5.5 13.5v41c0 6 1.83301 11 5.5 15s8.16699 6 13.5 6h41c6 0 11 -2 15 -6s6 -9 6 -15v-41c0 -5.33301 -2 -9.83301 -6 -13.5s-9 -5.5 -15 -5.5h-41v0zM248 -4c-5.33301 0 -9.83301 1.83301 -13.5 5.5
s-5.5 8.16699 -5.5 13.5v41c0 6 1.83301 11 5.5 15s8.16699 6 13.5 6h41c6 0 11 -2 15 -6s6 -9 6 -15v-41c0 -5.33301 -2 -9.83301 -6 -13.5s-9 -5.5 -15 -5.5h-41v0zM450 -4c-5.33301 0 -9.83301 1.83301 -13.5 5.5s-5.5 8.16699 -5.5 13.5v41c0 6 1.83301 11 5.5 15
s8.16699 6 13.5 6h41c6 0 11 -2 15 -6s6 -9 6 -15v-41c0 -5.33301 -2 -9.83301 -6 -13.5s-9 -5.5 -15 -5.5h-41v0z" />
    <glyph glyph-name="perthousand" unicode="&#x2030;" horiz-adv-x="479" 
d="M321 361c32 0 57.332 -9.5 75.999 -28.5s28 -45.5 28 -79.5v-151c0 -33.333 -9.33301 -59.5 -28 -78.5s-44 -28.5 -76 -28.5c-16.667 0 -32.5 3.16699 -47.5 9.5s-27.5 15.833 -37.5 28.5c-9.33301 -12 -21.166 -21.333 -35.499 -28s-30.5 -10 -48.5 -10
c-13.333 0 -26.333 2.16699 -39 6.5s-24 11 -34 20s-18 20.167 -24 33.5s-9 29 -9 47v151c0 18 3 33.667 9 47s14 24.5 24 33.5s21.333 15.833 34 20.5s25.667 7 39 7c37.333 0 65.333 -13.333 84 -40c10 13.333 22.5 23.333 37.5 30s30.833 10 47.5 10zM151.999 823
c32 0 57.333 -9.5 76 -28.5s28 -45.167 28 -78.5v-152c0 -33.333 -9.33301 -59.5 -28 -78.5s-44 -28.5 -76 -28.5c-13.333 0 -26.333 2.16699 -39 6.5s-24 11 -34 20s-18 20.167 -24 33.5s-9 29 -9 47v152c0 18 3 33.667 9 47s14 24.5 24 33.5s21.333 15.667 34 20
s25.667 6.5 39 6.5zM86.999 563c0 -20.667 5.66797 -36.667 17.001 -48s27 -17 47 -17c19.333 0 34.833 5.83301 46.5 17.5s17.5 27.167 17.5 46.5v156c0 19.333 -5.83301 34.833 -17.5 46.5s-26.834 17.5 -45.501 17.5c-20.667 0 -36.667 -5.66699 -48 -17
s-17 -27.333 -17 -48v-154zM44 370v33l221 46v-33zM87 101c0 -20.667 5.66797 -36.667 17.001 -48s27 -17 47 -17c19.333 0 34.833 5.83301 46.5 17.5s17.5 27.167 17.5 46.5v156c0 19.333 -5.83301 34.833 -17.5 46.5s-26.834 17.5 -45.501 17.5
c-20.667 0 -36.667 -5.66699 -48 -17s-17 -27.333 -17 -48v-154zM256.001 101c0 -20.667 5.66797 -36.667 17.001 -48s27 -17 47 -17c19.333 0 34.833 5.83301 46.5 17.5s17.5 27.167 17.5 46.5v156c0 19.333 -5.83301 34.833 -17.5 46.5s-26.834 17.5 -45.501 17.5
c-20.667 0 -36.667 -5.66699 -48 -17s-17 -27.333 -17 -48v-154z" />
    <glyph glyph-name="guilsinglleft" unicode="&#x2039;" horiz-adv-x="255" 
d="M47 309l121 220l14 -21l-62 -199l62 -198l-14 -22z" />
    <glyph glyph-name="guilsinglright" unicode="&#x203a;" horiz-adv-x="255" 
d="M209.003 309l-120.993 220l-13.999 -21l61.9971 -199l-61.9971 -198l13.999 -22z" />
    <glyph glyph-name="fraction" unicode="&#x2044;" horiz-adv-x="431" 
d="M348 845h46l-304 -880h-46z" />
    <glyph glyph-name="Euro" unicode="&#x20ac;" horiz-adv-x="320" 
d="M196 819c12.667 0 24.832 -1.99707 36.499 -5.99707s22 -9.5 31 -16.5s16.167 -15.667 21.5 -26s8 -21.833 8 -34.5v-127h-46v124c0 13.333 -4.83301 23.333 -14.5 30s-22.167 10 -37.5 10h-53c-15.333 0 -27.833 -3.33301 -37.5 -10s-14.5 -16.667 -14.5 -30v-257h157
v-46h-157v-45h157v-46h-157v-252c0 -12 4.33301 -22.5 13 -31.5s21.667 -13.5 39 -13.5h53c19.333 0 32.833 4.66699 40.5 14s11.5 20.666 11.5 33.999v115h46v-129c0 -9.33301 -1.66699 -18.833 -5 -28.5s-8.66602 -18.334 -15.999 -26.001s-17.333 -13.834 -30 -18.501
s-28 -7 -46 -7h-55c-30 0 -53.667 7.16699 -71 21.5s-26 33.833 -26 58.5v660c0 24.667 9.16699 44.667 27.5 60s41.5 23 69.5 23h55z" />
    <glyph glyph-name="trademark" unicode="&#x2122;" horiz-adv-x="554" 
d="M17 773v46h185v-46h-70v-389h-45v389h-70zM276 384h-46v435h85l57 -269l57 269h82v-435h-46v397l-64 -305h-58l-67 305v-397z" />
    <glyph glyph-name="minus" unicode="&#x2212;" horiz-adv-x="233" 
d="M44 293h145v-45h-145v45z" />
    <glyph glyph-name="infinity" unicode="&#x221e;" horiz-adv-x="630" 
d="M37 397c0 34 10.668 61.5 32.001 82.5s50.333 31.5 87 31.5h60c21.333 0 40.166 -3.83301 56.499 -11.5s29.5 -18.167 39.5 -31.5c10.667 13.333 24 23.833 40 31.5s34.667 11.5 56 11.5h60c36.667 0 65.834 -10.5 87.501 -31.5s32.5 -48.5 32.5 -82.5v-17
c0 -15.333 -2.5 -30 -7.5 -44s-12.5 -26.667 -22.5 -38s-22.5 -20.333 -37.5 -27s-32.5 -10 -52.5 -10h-60c-22 0 -41 4.16699 -57 12.5s-29 19.166 -39 32.499c-10 -13.333 -22.833 -24.166 -38.5 -32.499s-34.834 -12.5 -57.501 -12.5h-60c-20 0 -37.333 3.33301 -52 10
s-27 15.667 -37 27s-17.5 24 -22.5 38s-7.5 28.667 -7.5 44v17zM218.001 307c22 0 39.332 6.33301 51.999 19s19 30.667 19 54v14c0 21.333 -6.33301 38.5 -19 51.5s-29.667 19.5 -51 19.5h-65c-21.333 0 -38.5 -6.5 -51.5 -19.5s-19.5 -30.167 -19.5 -51.5v-14
c0 -23.333 6.33301 -41.333 19 -54s30.334 -19 53.001 -19h63zM470 307c22.667 0 40.166 6.33301 52.499 19s18.5 30.667 18.5 54v14c0 21.333 -6.33301 38.5 -19 51.5s-29.667 19.5 -51 19.5h-65c-21.333 0 -38.5 -6.5 -51.5 -19.5s-19.5 -30.167 -19.5 -51.5v-14
c0 -23.333 6.33301 -41.333 19 -54s30.334 -19 53.001 -19h63z" />
    <glyph glyph-name="apple" unicode="&#xf8ff;" horiz-adv-x="860" 
d="M228 820h336v-230h231v-340h-567v570zM439 660v86h-82v-86h82zM228 250v-235l-228 235h228z" />
    </font>
</defs>
</svg>
